%TF.GenerationSoftware,KiCad,Pcbnew,9.0.7*%
%TF.CreationDate,2026-02-10T21:25:41+00:00*%
%TF.ProjectId,micro discord board,6d696372-6f20-4646-9973-636f72642062,rev?*%
%TF.SameCoordinates,Original*%
%TF.FileFunction,Copper,L1,Top*%
%TF.FilePolarity,Positive*%
%FSLAX46Y46*%
G04 Gerber Fmt 4.6, Leading zero omitted, Abs format (unit mm)*
G04 Created by KiCad (PCBNEW 9.0.7) date 2026-02-10 21:25:41*
%MOMM*%
%LPD*%
G01*
G04 APERTURE LIST*
G04 Aperture macros list*
%AMRoundRect*
0 Rectangle with rounded corners*
0 $1 Rounding radius*
0 $2 $3 $4 $5 $6 $7 $8 $9 X,Y pos of 4 corners*
0 Add a 4 corners polygon primitive as box body*
4,1,4,$2,$3,$4,$5,$6,$7,$8,$9,$2,$3,0*
0 Add four circle primitives for the rounded corners*
1,1,$1+$1,$2,$3*
1,1,$1+$1,$4,$5*
1,1,$1+$1,$6,$7*
1,1,$1+$1,$8,$9*
0 Add four rect primitives between the rounded corners*
20,1,$1+$1,$2,$3,$4,$5,0*
20,1,$1+$1,$4,$5,$6,$7,0*
20,1,$1+$1,$6,$7,$8,$9,0*
20,1,$1+$1,$8,$9,$2,$3,0*%
G04 Aperture macros list end*
%TA.AperFunction,ComponentPad*%
%ADD10C,2.200000*%
%TD*%
%TA.AperFunction,SMDPad,CuDef*%
%ADD11RoundRect,0.152400X-1.063600X-0.609600X1.063600X-0.609600X1.063600X0.609600X-1.063600X0.609600X0*%
%TD*%
%TA.AperFunction,ComponentPad*%
%ADD12C,1.524000*%
%TD*%
%TA.AperFunction,SMDPad,CuDef*%
%ADD13RoundRect,0.152400X1.063600X0.609600X-1.063600X0.609600X-1.063600X-0.609600X1.063600X-0.609600X0*%
%TD*%
%TA.AperFunction,SMDPad,CuDef*%
%ADD14R,1.600000X0.850000*%
%TD*%
%TA.AperFunction,ComponentPad*%
%ADD15RoundRect,0.170000X0.680000X-0.680000X0.680000X0.680000X-0.680000X0.680000X-0.680000X-0.680000X0*%
%TD*%
%TA.AperFunction,ComponentPad*%
%ADD16C,1.700000*%
%TD*%
%TA.AperFunction,ComponentPad*%
%ADD17R,2.000000X2.000000*%
%TD*%
%TA.AperFunction,ComponentPad*%
%ADD18C,2.000000*%
%TD*%
%TA.AperFunction,ComponentPad*%
%ADD19R,3.200000X2.000000*%
%TD*%
%TA.AperFunction,ViaPad*%
%ADD20C,0.600000*%
%TD*%
%TA.AperFunction,Conductor*%
%ADD21C,0.200000*%
%TD*%
G04 APERTURE END LIST*
D10*
%TO.P,SW3,1,1*%
%TO.N,GND*%
X88265000Y-61595000D03*
%TO.P,SW3,2,2*%
%TO.N,Net-(U1-GPIO28_A2_D2)*%
X81915000Y-64135000D03*
%TD*%
D11*
%TO.P,U1,1,GPIO26_A0_D0*%
%TO.N,Net-(U1-GPIO26_A0_D0)*%
X141805000Y-93980000D03*
D12*
X140970000Y-93980000D03*
D11*
%TO.P,U1,2,GPIO27_A1_D1*%
%TO.N,Net-(U1-GPIO27_A1_D1)*%
X141805000Y-91440000D03*
D12*
X140970000Y-91440000D03*
D11*
%TO.P,U1,3,GPIO28_A2_D2*%
%TO.N,Net-(U1-GPIO28_A2_D2)*%
X141805000Y-88900000D03*
D12*
X140970000Y-88900000D03*
D11*
%TO.P,U1,4,GPIO29_A3_D3*%
%TO.N,Net-(U1-GPIO29_A3_D3)*%
X141805000Y-86360000D03*
D12*
X140970000Y-86360000D03*
D11*
%TO.P,U1,5,GPIO6_D4_SDA*%
%TO.N,Net-(U1-GPIO6_D4_SDA)*%
X141805000Y-83820000D03*
D12*
X140970000Y-83820000D03*
D11*
%TO.P,U1,6,GPIO7_D5_SCL*%
%TO.N,Net-(U1-GPIO7_D5_SCL)*%
X141805000Y-81280000D03*
D12*
X140970000Y-81280000D03*
D11*
%TO.P,U1,7,GPIO0_D6_TX*%
%TO.N,unconnected-(U1-GPIO0_D6_TX-Pad7)*%
X141805000Y-78740000D03*
D12*
X140970000Y-78740000D03*
%TO.P,U1,8,GPIO1_D7_CSn_RX*%
%TO.N,Net-(D1-DIN)*%
X125730000Y-78740000D03*
D13*
X124895000Y-78740000D03*
D12*
%TO.P,U1,9,GPIO2_D8_SCK*%
%TO.N,unconnected-(U1-GPIO2_D8_SCK-Pad9)*%
X125730000Y-81280000D03*
D13*
X124895000Y-81280000D03*
D12*
%TO.P,U1,10,GPIO4_D9_MISO*%
%TO.N,Net-(U1-GPIO4_D9_MISO)*%
X125730000Y-83820000D03*
D13*
X124895000Y-83820000D03*
D12*
%TO.P,U1,11,GPIO3_D10_MOSI*%
%TO.N,Net-(U1-GPIO3_D10_MOSI)*%
X125730000Y-86360000D03*
D13*
X124895000Y-86360000D03*
D12*
%TO.P,U1,12,3V3*%
%TO.N,unconnected-(U1-3V3-Pad12)*%
X125730000Y-88900000D03*
D13*
X124895000Y-88900000D03*
D12*
%TO.P,U1,13,GND*%
%TO.N,GND*%
X125730000Y-91440000D03*
D13*
X124895000Y-91440000D03*
D12*
%TO.P,U1,14,5V*%
%TO.N,+5V*%
X125730000Y-93980000D03*
D13*
X124895000Y-93980000D03*
%TD*%
D14*
%TO.P,D2,1,DOUT*%
%TO.N,unconnected-(D2-DOUT-Pad1)*%
X127468750Y-71437500D03*
%TO.P,D2,2,VSS*%
%TO.N,GND*%
X127468750Y-73187500D03*
%TO.P,D2,3,DIN*%
%TO.N,Net-(D1-DOUT)*%
X130968750Y-73187500D03*
%TO.P,D2,4,VDD*%
%TO.N,+5V*%
X130968750Y-71437500D03*
%TD*%
D15*
%TO.P,U2,1,GND*%
%TO.N,GND*%
X118390000Y-64770000D03*
D16*
%TO.P,U2,2,VCC*%
%TO.N,+5V*%
X118390000Y-62230000D03*
%TO.P,U2,3,SCL*%
%TO.N,Net-(U1-GPIO3_D10_MOSI)*%
X118390000Y-59690000D03*
%TO.P,U2,4,SDA*%
%TO.N,Net-(U1-GPIO4_D9_MISO)*%
X118390000Y-57150000D03*
%TD*%
D10*
%TO.P,SW4,1,1*%
%TO.N,GND*%
X107315000Y-61595000D03*
%TO.P,SW4,2,2*%
%TO.N,Net-(U1-GPIO29_A3_D3)*%
X100965000Y-64135000D03*
%TD*%
D17*
%TO.P,SW5,A,A*%
%TO.N,Net-(U1-GPIO6_D4_SDA)*%
X118850000Y-42862500D03*
D18*
%TO.P,SW5,B,B*%
%TO.N,Net-(U1-GPIO7_D5_SCL)*%
X118850000Y-47862500D03*
%TO.P,SW5,C,C*%
%TO.N,GND*%
X118850000Y-45362500D03*
D19*
%TO.P,SW5,MP*%
%TO.N,N/C*%
X126350000Y-39762500D03*
X126350000Y-50962500D03*
D18*
%TO.P,SW5,S1*%
X133350000Y-47862500D03*
%TO.P,SW5,S2*%
X133350000Y-42862500D03*
%TD*%
D14*
%TO.P,D1,1,DOUT*%
%TO.N,Net-(D1-DOUT)*%
X117943750Y-71437500D03*
%TO.P,D1,2,VSS*%
%TO.N,GND*%
X117943750Y-73187500D03*
%TO.P,D1,3,DIN*%
%TO.N,Net-(D1-DIN)*%
X121443750Y-73187500D03*
%TO.P,D1,4,VDD*%
%TO.N,+5V*%
X121443750Y-71437500D03*
%TD*%
D10*
%TO.P,SW1,1,1*%
%TO.N,GND*%
X88265000Y-42545000D03*
%TO.P,SW1,2,2*%
%TO.N,Net-(U1-GPIO26_A0_D0)*%
X81915000Y-45085000D03*
%TD*%
%TO.P,SW2,1,1*%
%TO.N,GND*%
X107315000Y-42545000D03*
%TO.P,SW2,2,2*%
%TO.N,Net-(U1-GPIO27_A1_D1)*%
X100965000Y-45085000D03*
%TD*%
D20*
%TO.N,+5V*%
X118110000Y-88900000D03*
%TO.N,Net-(U1-GPIO3_D10_MOSI)*%
X128270000Y-86360000D03*
X116222490Y-60166040D03*
%TO.N,Net-(U1-GPIO4_D9_MISO)*%
X115570000Y-64170000D03*
%TD*%
D21*
%TO.N,GND*%
X119044750Y-65424750D02*
X118390000Y-64770000D01*
X117943750Y-84488750D02*
X117943750Y-73187500D01*
X127468750Y-73187500D02*
X127468750Y-89701250D01*
X117943750Y-73187500D02*
X119044750Y-72086500D01*
X119044750Y-72086500D02*
X119044750Y-65424750D01*
X124895000Y-91440000D02*
X117943750Y-84488750D01*
X127468750Y-89701250D02*
X125730000Y-91440000D01*
%TO.N,+5V*%
X118110000Y-88900000D02*
X116842750Y-87632750D01*
X122169750Y-70711500D02*
X121443750Y-71437500D01*
X116842750Y-63777250D02*
X118390000Y-62230000D01*
X121443750Y-71437500D02*
X121443750Y-65283750D01*
X116842750Y-87632750D02*
X116842750Y-63777250D01*
X121443750Y-65283750D02*
X118390000Y-62230000D01*
X130242750Y-70711500D02*
X122169750Y-70711500D01*
X130968750Y-71437500D02*
X130242750Y-70711500D01*
%TO.N,Net-(U1-GPIO3_D10_MOSI)*%
X116222490Y-60166040D02*
X122091390Y-60166040D01*
X132470750Y-82159250D02*
X128270000Y-86360000D01*
X132470750Y-70545400D02*
X132470750Y-82159250D01*
X122091390Y-60166040D02*
X132470750Y-70545400D01*
%TO.N,Net-(U1-GPIO4_D9_MISO)*%
X122437250Y-61079000D02*
X132069750Y-70711500D01*
X115570000Y-64170000D02*
X115570000Y-63422240D01*
X118344750Y-77269750D02*
X124895000Y-83820000D01*
X117913240Y-61079000D02*
X122437250Y-61079000D01*
X118344750Y-74613500D02*
X118344750Y-77269750D01*
X132069750Y-70711500D02*
X132069750Y-72163500D01*
X132069750Y-72163500D02*
X120794750Y-72163500D01*
X120794750Y-72163500D02*
X118344750Y-74613500D01*
X115570000Y-63422240D02*
X117913240Y-61079000D01*
%TD*%
M02*
