%TF.GenerationSoftware,KiCad,Pcbnew,9.0.7*%
%TF.CreationDate,2026-02-10T21:25:41+00:00*%
%TF.ProjectId,micro discord board,6d696372-6f20-4646-9973-636f72642062,rev?*%
%TF.SameCoordinates,Original*%
%TF.FileFunction,Soldermask,Top*%
%TF.FilePolarity,Negative*%
%FSLAX46Y46*%
G04 Gerber Fmt 4.6, Leading zero omitted, Abs format (unit mm)*
G04 Created by KiCad (PCBNEW 9.0.7) date 2026-02-10 21:25:41*
%MOMM*%
%LPD*%
G01*
G04 APERTURE LIST*
G04 Aperture macros list*
%AMRoundRect*
0 Rectangle with rounded corners*
0 $1 Rounding radius*
0 $2 $3 $4 $5 $6 $7 $8 $9 X,Y pos of 4 corners*
0 Add a 4 corners polygon primitive as box body*
4,1,4,$2,$3,$4,$5,$6,$7,$8,$9,$2,$3,0*
0 Add four circle primitives for the rounded corners*
1,1,$1+$1,$2,$3*
1,1,$1+$1,$4,$5*
1,1,$1+$1,$6,$7*
1,1,$1+$1,$8,$9*
0 Add four rect primitives between the rounded corners*
20,1,$1+$1,$2,$3,$4,$5,0*
20,1,$1+$1,$4,$5,$6,$7,0*
20,1,$1+$1,$6,$7,$8,$9,0*
20,1,$1+$1,$8,$9,$2,$3,0*%
G04 Aperture macros list end*
%ADD10C,1.700000*%
%ADD11C,4.000000*%
%ADD12C,2.200000*%
%ADD13RoundRect,0.152400X-1.063600X-0.609600X1.063600X-0.609600X1.063600X0.609600X-1.063600X0.609600X0*%
%ADD14C,1.524000*%
%ADD15RoundRect,0.152400X1.063600X0.609600X-1.063600X0.609600X-1.063600X-0.609600X1.063600X-0.609600X0*%
%ADD16R,1.600000X0.850000*%
%ADD17RoundRect,0.170000X0.680000X-0.680000X0.680000X0.680000X-0.680000X0.680000X-0.680000X-0.680000X0*%
%ADD18R,2.000000X2.000000*%
%ADD19C,2.000000*%
%ADD20R,3.200000X2.000000*%
G04 APERTURE END LIST*
D10*
%TO.C,SW3*%
X80645000Y-66675000D03*
D11*
X85725000Y-66675000D03*
D10*
X90805000Y-66675000D03*
D12*
X88265000Y-61595000D03*
X81915000Y-64135000D03*
%TD*%
D13*
%TO.C,U1*%
X141805000Y-93980000D03*
D14*
X140970000Y-93980000D03*
D13*
X141805000Y-91440000D03*
D14*
X140970000Y-91440000D03*
D13*
X141805000Y-88900000D03*
D14*
X140970000Y-88900000D03*
D13*
X141805000Y-86360000D03*
D14*
X140970000Y-86360000D03*
D13*
X141805000Y-83820000D03*
D14*
X140970000Y-83820000D03*
D13*
X141805000Y-81280000D03*
D14*
X140970000Y-81280000D03*
D13*
X141805000Y-78740000D03*
D14*
X140970000Y-78740000D03*
X125730000Y-78740000D03*
D15*
X124895000Y-78740000D03*
D14*
X125730000Y-81280000D03*
D15*
X124895000Y-81280000D03*
D14*
X125730000Y-83820000D03*
D15*
X124895000Y-83820000D03*
D14*
X125730000Y-86360000D03*
D15*
X124895000Y-86360000D03*
D14*
X125730000Y-88900000D03*
D15*
X124895000Y-88900000D03*
D14*
X125730000Y-91440000D03*
D15*
X124895000Y-91440000D03*
D14*
X125730000Y-93980000D03*
D15*
X124895000Y-93980000D03*
%TD*%
D16*
%TO.C,D2*%
X127468750Y-71437500D03*
X127468750Y-73187500D03*
X130968750Y-73187500D03*
X130968750Y-71437500D03*
%TD*%
D17*
%TO.C,U2*%
X118390000Y-64770000D03*
D10*
X118390000Y-62230000D03*
X118390000Y-59690000D03*
X118390000Y-57150000D03*
%TD*%
%TO.C,SW4*%
X99695000Y-66675000D03*
D11*
X104775000Y-66675000D03*
D10*
X109855000Y-66675000D03*
D12*
X107315000Y-61595000D03*
X100965000Y-64135000D03*
%TD*%
D18*
%TO.C,SW5*%
X118850000Y-42862500D03*
D19*
X118850000Y-47862500D03*
X118850000Y-45362500D03*
D20*
X126350000Y-39762500D03*
X126350000Y-50962500D03*
D19*
X133350000Y-47862500D03*
X133350000Y-42862500D03*
%TD*%
D16*
%TO.C,D1*%
X117943750Y-71437500D03*
X117943750Y-73187500D03*
X121443750Y-73187500D03*
X121443750Y-71437500D03*
%TD*%
D10*
%TO.C,SW1*%
X80645000Y-47625000D03*
D11*
X85725000Y-47625000D03*
D10*
X90805000Y-47625000D03*
D12*
X88265000Y-42545000D03*
X81915000Y-45085000D03*
%TD*%
D10*
%TO.C,SW2*%
X99695000Y-47625000D03*
D11*
X104775000Y-47625000D03*
D10*
X109855000Y-47625000D03*
D12*
X107315000Y-42545000D03*
X100965000Y-45085000D03*
%TD*%
M02*
