M48
; DRILL file {KiCad 9.0.7} date 2026-02-10T21:25:54+0000
; FORMAT={-:-/ absolute / metric / decimal}
; #@! TF.CreationDate,2026-02-10T21:25:54+00:00
; #@! TF.GenerationSoftware,Kicad,Pcbnew,9.0.7
; #@! TF.FileFunction,Plated,1,2,PTH
FMAT,2
METRIC
; #@! TA.AperFunction,Plated,PTH,ViaDrill
T1C0.300
; #@! TA.AperFunction,Plated,PTH,ComponentDrill
T2C0.889
; #@! TA.AperFunction,Plated,PTH,ComponentDrill
T3C1.000
; #@! TA.AperFunction,Plated,PTH,ComponentDrill
T4C1.500
%
G90
G05
T1
X115.57Y-64.17
X116.222Y-60.166
X118.11Y-88.9
X128.27Y-86.36
T2
X125.73Y-78.74
X125.73Y-81.28
X125.73Y-83.82
X125.73Y-86.36
X125.73Y-88.9
X125.73Y-91.44
X125.73Y-93.98
X140.97Y-78.74
X140.97Y-81.28
X140.97Y-83.82
X140.97Y-86.36
X140.97Y-88.9
X140.97Y-91.44
X140.97Y-93.98
T3
X118.39Y-57.15
X118.39Y-59.69
X118.39Y-62.23
X118.39Y-64.77
X118.85Y-42.862
X118.85Y-45.362
X118.85Y-47.862
X133.35Y-42.862
X133.35Y-47.862
T4
X81.915Y-45.085
X81.915Y-64.135
X88.265Y-42.545
X88.265Y-61.595
X100.965Y-45.085
X100.965Y-64.135
X107.315Y-42.545
X107.315Y-61.595
T4
G00X125.7Y-39.762
M15
G01X127.0Y-39.762
M16
G05
G00X125.7Y-50.962
M15
G01X127.0Y-50.962
M16
G05
M30
