%TF.GenerationSoftware,KiCad,Pcbnew,9.0.7*%
%TF.CreationDate,2026-02-10T21:25:41+00:00*%
%TF.ProjectId,micro discord board,6d696372-6f20-4646-9973-636f72642062,rev?*%
%TF.SameCoordinates,Original*%
%TF.FileFunction,Legend,Top*%
%TF.FilePolarity,Positive*%
%FSLAX46Y46*%
G04 Gerber Fmt 4.6, Leading zero omitted, Abs format (unit mm)*
G04 Created by KiCad (PCBNEW 9.0.7) date 2026-02-10 21:25:41*
%MOMM*%
%LPD*%
G01*
G04 APERTURE LIST*
%ADD10C,0.100000*%
%ADD11C,0.150000*%
%ADD12C,0.101600*%
%ADD13C,0.120000*%
%ADD14C,0.127000*%
%ADD15C,0.504000*%
G04 APERTURE END LIST*
D10*
X81694955Y-90359919D02*
X81694955Y-89836109D01*
X81694955Y-89836109D02*
X81647336Y-89740871D01*
X81647336Y-89740871D02*
X81552098Y-89693252D01*
X81552098Y-89693252D02*
X81361622Y-89693252D01*
X81361622Y-89693252D02*
X81266384Y-89740871D01*
X81694955Y-90312300D02*
X81599717Y-90359919D01*
X81599717Y-90359919D02*
X81361622Y-90359919D01*
X81361622Y-90359919D02*
X81266384Y-90312300D01*
X81266384Y-90312300D02*
X81218765Y-90217061D01*
X81218765Y-90217061D02*
X81218765Y-90121823D01*
X81218765Y-90121823D02*
X81266384Y-90026585D01*
X81266384Y-90026585D02*
X81361622Y-89978966D01*
X81361622Y-89978966D02*
X81599717Y-89978966D01*
X81599717Y-89978966D02*
X81694955Y-89931347D01*
X82028289Y-89693252D02*
X82409241Y-89693252D01*
X82171146Y-89359919D02*
X82171146Y-90217061D01*
X82171146Y-90217061D02*
X82218765Y-90312300D01*
X82218765Y-90312300D02*
X82314003Y-90359919D01*
X82314003Y-90359919D02*
X82409241Y-90359919D01*
X83171146Y-90359919D02*
X83171146Y-89836109D01*
X83171146Y-89836109D02*
X83123527Y-89740871D01*
X83123527Y-89740871D02*
X83028289Y-89693252D01*
X83028289Y-89693252D02*
X82837813Y-89693252D01*
X82837813Y-89693252D02*
X82742575Y-89740871D01*
X83171146Y-90312300D02*
X83075908Y-90359919D01*
X83075908Y-90359919D02*
X82837813Y-90359919D01*
X82837813Y-90359919D02*
X82742575Y-90312300D01*
X82742575Y-90312300D02*
X82694956Y-90217061D01*
X82694956Y-90217061D02*
X82694956Y-90121823D01*
X82694956Y-90121823D02*
X82742575Y-90026585D01*
X82742575Y-90026585D02*
X82837813Y-89978966D01*
X82837813Y-89978966D02*
X83075908Y-89978966D01*
X83075908Y-89978966D02*
X83171146Y-89931347D01*
X84409242Y-90359919D02*
X84409242Y-89359919D01*
X84409242Y-89740871D02*
X84504480Y-89693252D01*
X84504480Y-89693252D02*
X84694956Y-89693252D01*
X84694956Y-89693252D02*
X84790194Y-89740871D01*
X84790194Y-89740871D02*
X84837813Y-89788490D01*
X84837813Y-89788490D02*
X84885432Y-89883728D01*
X84885432Y-89883728D02*
X84885432Y-90169442D01*
X84885432Y-90169442D02*
X84837813Y-90264680D01*
X84837813Y-90264680D02*
X84790194Y-90312300D01*
X84790194Y-90312300D02*
X84694956Y-90359919D01*
X84694956Y-90359919D02*
X84504480Y-90359919D01*
X84504480Y-90359919D02*
X84409242Y-90312300D01*
X85456861Y-90359919D02*
X85361623Y-90312300D01*
X85361623Y-90312300D02*
X85314004Y-90264680D01*
X85314004Y-90264680D02*
X85266385Y-90169442D01*
X85266385Y-90169442D02*
X85266385Y-89883728D01*
X85266385Y-89883728D02*
X85314004Y-89788490D01*
X85314004Y-89788490D02*
X85361623Y-89740871D01*
X85361623Y-89740871D02*
X85456861Y-89693252D01*
X85456861Y-89693252D02*
X85599718Y-89693252D01*
X85599718Y-89693252D02*
X85694956Y-89740871D01*
X85694956Y-89740871D02*
X85742575Y-89788490D01*
X85742575Y-89788490D02*
X85790194Y-89883728D01*
X85790194Y-89883728D02*
X85790194Y-90169442D01*
X85790194Y-90169442D02*
X85742575Y-90264680D01*
X85742575Y-90264680D02*
X85694956Y-90312300D01*
X85694956Y-90312300D02*
X85599718Y-90359919D01*
X85599718Y-90359919D02*
X85456861Y-90359919D01*
X86123528Y-89693252D02*
X86361623Y-90359919D01*
X86599718Y-89693252D02*
X86361623Y-90359919D01*
X86361623Y-90359919D02*
X86266385Y-90598014D01*
X86266385Y-90598014D02*
X86218766Y-90645633D01*
X86218766Y-90645633D02*
X86123528Y-90693252D01*
X86933052Y-90312300D02*
X87028290Y-90359919D01*
X87028290Y-90359919D02*
X87218766Y-90359919D01*
X87218766Y-90359919D02*
X87314004Y-90312300D01*
X87314004Y-90312300D02*
X87361623Y-90217061D01*
X87361623Y-90217061D02*
X87361623Y-90169442D01*
X87361623Y-90169442D02*
X87314004Y-90074204D01*
X87314004Y-90074204D02*
X87218766Y-90026585D01*
X87218766Y-90026585D02*
X87075909Y-90026585D01*
X87075909Y-90026585D02*
X86980671Y-89978966D01*
X86980671Y-89978966D02*
X86933052Y-89883728D01*
X86933052Y-89883728D02*
X86933052Y-89836109D01*
X86933052Y-89836109D02*
X86980671Y-89740871D01*
X86980671Y-89740871D02*
X87075909Y-89693252D01*
X87075909Y-89693252D02*
X87218766Y-89693252D01*
X87218766Y-89693252D02*
X87314004Y-89740871D01*
X88552100Y-90359919D02*
X88552100Y-89359919D01*
X88980671Y-90359919D02*
X88980671Y-89836109D01*
X88980671Y-89836109D02*
X88933052Y-89740871D01*
X88933052Y-89740871D02*
X88837814Y-89693252D01*
X88837814Y-89693252D02*
X88694957Y-89693252D01*
X88694957Y-89693252D02*
X88599719Y-89740871D01*
X88599719Y-89740871D02*
X88552100Y-89788490D01*
X89885433Y-90359919D02*
X89885433Y-89836109D01*
X89885433Y-89836109D02*
X89837814Y-89740871D01*
X89837814Y-89740871D02*
X89742576Y-89693252D01*
X89742576Y-89693252D02*
X89552100Y-89693252D01*
X89552100Y-89693252D02*
X89456862Y-89740871D01*
X89885433Y-90312300D02*
X89790195Y-90359919D01*
X89790195Y-90359919D02*
X89552100Y-90359919D01*
X89552100Y-90359919D02*
X89456862Y-90312300D01*
X89456862Y-90312300D02*
X89409243Y-90217061D01*
X89409243Y-90217061D02*
X89409243Y-90121823D01*
X89409243Y-90121823D02*
X89456862Y-90026585D01*
X89456862Y-90026585D02*
X89552100Y-89978966D01*
X89552100Y-89978966D02*
X89790195Y-89978966D01*
X89790195Y-89978966D02*
X89885433Y-89931347D01*
X90790195Y-90312300D02*
X90694957Y-90359919D01*
X90694957Y-90359919D02*
X90504481Y-90359919D01*
X90504481Y-90359919D02*
X90409243Y-90312300D01*
X90409243Y-90312300D02*
X90361624Y-90264680D01*
X90361624Y-90264680D02*
X90314005Y-90169442D01*
X90314005Y-90169442D02*
X90314005Y-89883728D01*
X90314005Y-89883728D02*
X90361624Y-89788490D01*
X90361624Y-89788490D02*
X90409243Y-89740871D01*
X90409243Y-89740871D02*
X90504481Y-89693252D01*
X90504481Y-89693252D02*
X90694957Y-89693252D01*
X90694957Y-89693252D02*
X90790195Y-89740871D01*
X91218767Y-90359919D02*
X91218767Y-89359919D01*
X91314005Y-89978966D02*
X91599719Y-90359919D01*
X91599719Y-89693252D02*
X91218767Y-90074204D01*
X92028291Y-89693252D02*
X92028291Y-90693252D01*
X92028291Y-89740871D02*
X92123529Y-89693252D01*
X92123529Y-89693252D02*
X92314005Y-89693252D01*
X92314005Y-89693252D02*
X92409243Y-89740871D01*
X92409243Y-89740871D02*
X92456862Y-89788490D01*
X92456862Y-89788490D02*
X92504481Y-89883728D01*
X92504481Y-89883728D02*
X92504481Y-90169442D01*
X92504481Y-90169442D02*
X92456862Y-90264680D01*
X92456862Y-90264680D02*
X92409243Y-90312300D01*
X92409243Y-90312300D02*
X92314005Y-90359919D01*
X92314005Y-90359919D02*
X92123529Y-90359919D01*
X92123529Y-90359919D02*
X92028291Y-90312300D01*
X93361624Y-90359919D02*
X93361624Y-89836109D01*
X93361624Y-89836109D02*
X93314005Y-89740871D01*
X93314005Y-89740871D02*
X93218767Y-89693252D01*
X93218767Y-89693252D02*
X93028291Y-89693252D01*
X93028291Y-89693252D02*
X92933053Y-89740871D01*
X93361624Y-90312300D02*
X93266386Y-90359919D01*
X93266386Y-90359919D02*
X93028291Y-90359919D01*
X93028291Y-90359919D02*
X92933053Y-90312300D01*
X92933053Y-90312300D02*
X92885434Y-90217061D01*
X92885434Y-90217061D02*
X92885434Y-90121823D01*
X92885434Y-90121823D02*
X92933053Y-90026585D01*
X92933053Y-90026585D02*
X93028291Y-89978966D01*
X93028291Y-89978966D02*
X93266386Y-89978966D01*
X93266386Y-89978966D02*
X93361624Y-89931347D01*
X94266386Y-90359919D02*
X94266386Y-89359919D01*
X94266386Y-90312300D02*
X94171148Y-90359919D01*
X94171148Y-90359919D02*
X93980672Y-90359919D01*
X93980672Y-90359919D02*
X93885434Y-90312300D01*
X93885434Y-90312300D02*
X93837815Y-90264680D01*
X93837815Y-90264680D02*
X93790196Y-90169442D01*
X93790196Y-90169442D02*
X93790196Y-89883728D01*
X93790196Y-89883728D02*
X93837815Y-89788490D01*
X93837815Y-89788490D02*
X93885434Y-89740871D01*
X93885434Y-89740871D02*
X93980672Y-89693252D01*
X93980672Y-89693252D02*
X94171148Y-89693252D01*
X94171148Y-89693252D02*
X94266386Y-89740871D01*
D11*
X84391667Y-59208200D02*
X84534524Y-59255819D01*
X84534524Y-59255819D02*
X84772619Y-59255819D01*
X84772619Y-59255819D02*
X84867857Y-59208200D01*
X84867857Y-59208200D02*
X84915476Y-59160580D01*
X84915476Y-59160580D02*
X84963095Y-59065342D01*
X84963095Y-59065342D02*
X84963095Y-58970104D01*
X84963095Y-58970104D02*
X84915476Y-58874866D01*
X84915476Y-58874866D02*
X84867857Y-58827247D01*
X84867857Y-58827247D02*
X84772619Y-58779628D01*
X84772619Y-58779628D02*
X84582143Y-58732009D01*
X84582143Y-58732009D02*
X84486905Y-58684390D01*
X84486905Y-58684390D02*
X84439286Y-58636771D01*
X84439286Y-58636771D02*
X84391667Y-58541533D01*
X84391667Y-58541533D02*
X84391667Y-58446295D01*
X84391667Y-58446295D02*
X84439286Y-58351057D01*
X84439286Y-58351057D02*
X84486905Y-58303438D01*
X84486905Y-58303438D02*
X84582143Y-58255819D01*
X84582143Y-58255819D02*
X84820238Y-58255819D01*
X84820238Y-58255819D02*
X84963095Y-58303438D01*
X85296429Y-58255819D02*
X85534524Y-59255819D01*
X85534524Y-59255819D02*
X85725000Y-58541533D01*
X85725000Y-58541533D02*
X85915476Y-59255819D01*
X85915476Y-59255819D02*
X86153572Y-58255819D01*
X86439286Y-58255819D02*
X87058333Y-58255819D01*
X87058333Y-58255819D02*
X86725000Y-58636771D01*
X86725000Y-58636771D02*
X86867857Y-58636771D01*
X86867857Y-58636771D02*
X86963095Y-58684390D01*
X86963095Y-58684390D02*
X87010714Y-58732009D01*
X87010714Y-58732009D02*
X87058333Y-58827247D01*
X87058333Y-58827247D02*
X87058333Y-59065342D01*
X87058333Y-59065342D02*
X87010714Y-59160580D01*
X87010714Y-59160580D02*
X86963095Y-59208200D01*
X86963095Y-59208200D02*
X86867857Y-59255819D01*
X86867857Y-59255819D02*
X86582143Y-59255819D01*
X86582143Y-59255819D02*
X86486905Y-59208200D01*
X86486905Y-59208200D02*
X86439286Y-59160580D01*
D12*
X142333809Y-98706520D02*
X142333809Y-98192473D01*
X142333809Y-98192473D02*
X142303571Y-98131997D01*
X142303571Y-98131997D02*
X142273333Y-98101759D01*
X142273333Y-98101759D02*
X142212857Y-98071520D01*
X142212857Y-98071520D02*
X142091904Y-98071520D01*
X142091904Y-98071520D02*
X142031428Y-98101759D01*
X142031428Y-98101759D02*
X142001190Y-98131997D01*
X142001190Y-98131997D02*
X141970952Y-98192473D01*
X141970952Y-98192473D02*
X141970952Y-98706520D01*
X141335952Y-98071520D02*
X141698809Y-98071520D01*
X141517381Y-98071520D02*
X141517381Y-98706520D01*
X141517381Y-98706520D02*
X141577857Y-98615806D01*
X141577857Y-98615806D02*
X141638333Y-98555330D01*
X141638333Y-98555330D02*
X141698809Y-98525092D01*
D11*
X128480655Y-70017319D02*
X128480655Y-69017319D01*
X128480655Y-69017319D02*
X128718750Y-69017319D01*
X128718750Y-69017319D02*
X128861607Y-69064938D01*
X128861607Y-69064938D02*
X128956845Y-69160176D01*
X128956845Y-69160176D02*
X129004464Y-69255414D01*
X129004464Y-69255414D02*
X129052083Y-69445890D01*
X129052083Y-69445890D02*
X129052083Y-69588747D01*
X129052083Y-69588747D02*
X129004464Y-69779223D01*
X129004464Y-69779223D02*
X128956845Y-69874461D01*
X128956845Y-69874461D02*
X128861607Y-69969700D01*
X128861607Y-69969700D02*
X128718750Y-70017319D01*
X128718750Y-70017319D02*
X128480655Y-70017319D01*
X129433036Y-69112557D02*
X129480655Y-69064938D01*
X129480655Y-69064938D02*
X129575893Y-69017319D01*
X129575893Y-69017319D02*
X129813988Y-69017319D01*
X129813988Y-69017319D02*
X129909226Y-69064938D01*
X129909226Y-69064938D02*
X129956845Y-69112557D01*
X129956845Y-69112557D02*
X130004464Y-69207795D01*
X130004464Y-69207795D02*
X130004464Y-69303033D01*
X130004464Y-69303033D02*
X129956845Y-69445890D01*
X129956845Y-69445890D02*
X129385417Y-70017319D01*
X129385417Y-70017319D02*
X130004464Y-70017319D01*
X126247321Y-71799795D02*
X125790178Y-71799795D01*
X126018750Y-71799795D02*
X126018750Y-70999795D01*
X126018750Y-70999795D02*
X125942559Y-71114080D01*
X125942559Y-71114080D02*
X125866369Y-71190271D01*
X125866369Y-71190271D02*
X125790178Y-71228366D01*
X115344819Y-61531904D02*
X116154342Y-61531904D01*
X116154342Y-61531904D02*
X116249580Y-61484285D01*
X116249580Y-61484285D02*
X116297200Y-61436666D01*
X116297200Y-61436666D02*
X116344819Y-61341428D01*
X116344819Y-61341428D02*
X116344819Y-61150952D01*
X116344819Y-61150952D02*
X116297200Y-61055714D01*
X116297200Y-61055714D02*
X116249580Y-61008095D01*
X116249580Y-61008095D02*
X116154342Y-60960476D01*
X116154342Y-60960476D02*
X115344819Y-60960476D01*
X115440057Y-60531904D02*
X115392438Y-60484285D01*
X115392438Y-60484285D02*
X115344819Y-60389047D01*
X115344819Y-60389047D02*
X115344819Y-60150952D01*
X115344819Y-60150952D02*
X115392438Y-60055714D01*
X115392438Y-60055714D02*
X115440057Y-60008095D01*
X115440057Y-60008095D02*
X115535295Y-59960476D01*
X115535295Y-59960476D02*
X115630533Y-59960476D01*
X115630533Y-59960476D02*
X115773390Y-60008095D01*
X115773390Y-60008095D02*
X116344819Y-60579523D01*
X116344819Y-60579523D02*
X116344819Y-59960476D01*
X103441667Y-59208200D02*
X103584524Y-59255819D01*
X103584524Y-59255819D02*
X103822619Y-59255819D01*
X103822619Y-59255819D02*
X103917857Y-59208200D01*
X103917857Y-59208200D02*
X103965476Y-59160580D01*
X103965476Y-59160580D02*
X104013095Y-59065342D01*
X104013095Y-59065342D02*
X104013095Y-58970104D01*
X104013095Y-58970104D02*
X103965476Y-58874866D01*
X103965476Y-58874866D02*
X103917857Y-58827247D01*
X103917857Y-58827247D02*
X103822619Y-58779628D01*
X103822619Y-58779628D02*
X103632143Y-58732009D01*
X103632143Y-58732009D02*
X103536905Y-58684390D01*
X103536905Y-58684390D02*
X103489286Y-58636771D01*
X103489286Y-58636771D02*
X103441667Y-58541533D01*
X103441667Y-58541533D02*
X103441667Y-58446295D01*
X103441667Y-58446295D02*
X103489286Y-58351057D01*
X103489286Y-58351057D02*
X103536905Y-58303438D01*
X103536905Y-58303438D02*
X103632143Y-58255819D01*
X103632143Y-58255819D02*
X103870238Y-58255819D01*
X103870238Y-58255819D02*
X104013095Y-58303438D01*
X104346429Y-58255819D02*
X104584524Y-59255819D01*
X104584524Y-59255819D02*
X104775000Y-58541533D01*
X104775000Y-58541533D02*
X104965476Y-59255819D01*
X104965476Y-59255819D02*
X105203572Y-58255819D01*
X106013095Y-58589152D02*
X106013095Y-59255819D01*
X105775000Y-58208200D02*
X105536905Y-58922485D01*
X105536905Y-58922485D02*
X106155952Y-58922485D01*
X120316667Y-38569700D02*
X120459524Y-38617319D01*
X120459524Y-38617319D02*
X120697619Y-38617319D01*
X120697619Y-38617319D02*
X120792857Y-38569700D01*
X120792857Y-38569700D02*
X120840476Y-38522080D01*
X120840476Y-38522080D02*
X120888095Y-38426842D01*
X120888095Y-38426842D02*
X120888095Y-38331604D01*
X120888095Y-38331604D02*
X120840476Y-38236366D01*
X120840476Y-38236366D02*
X120792857Y-38188747D01*
X120792857Y-38188747D02*
X120697619Y-38141128D01*
X120697619Y-38141128D02*
X120507143Y-38093509D01*
X120507143Y-38093509D02*
X120411905Y-38045890D01*
X120411905Y-38045890D02*
X120364286Y-37998271D01*
X120364286Y-37998271D02*
X120316667Y-37903033D01*
X120316667Y-37903033D02*
X120316667Y-37807795D01*
X120316667Y-37807795D02*
X120364286Y-37712557D01*
X120364286Y-37712557D02*
X120411905Y-37664938D01*
X120411905Y-37664938D02*
X120507143Y-37617319D01*
X120507143Y-37617319D02*
X120745238Y-37617319D01*
X120745238Y-37617319D02*
X120888095Y-37664938D01*
X121221429Y-37617319D02*
X121459524Y-38617319D01*
X121459524Y-38617319D02*
X121650000Y-37903033D01*
X121650000Y-37903033D02*
X121840476Y-38617319D01*
X121840476Y-38617319D02*
X122078572Y-37617319D01*
X122935714Y-37617319D02*
X122459524Y-37617319D01*
X122459524Y-37617319D02*
X122411905Y-38093509D01*
X122411905Y-38093509D02*
X122459524Y-38045890D01*
X122459524Y-38045890D02*
X122554762Y-37998271D01*
X122554762Y-37998271D02*
X122792857Y-37998271D01*
X122792857Y-37998271D02*
X122888095Y-38045890D01*
X122888095Y-38045890D02*
X122935714Y-38093509D01*
X122935714Y-38093509D02*
X122983333Y-38188747D01*
X122983333Y-38188747D02*
X122983333Y-38426842D01*
X122983333Y-38426842D02*
X122935714Y-38522080D01*
X122935714Y-38522080D02*
X122888095Y-38569700D01*
X122888095Y-38569700D02*
X122792857Y-38617319D01*
X122792857Y-38617319D02*
X122554762Y-38617319D01*
X122554762Y-38617319D02*
X122459524Y-38569700D01*
X122459524Y-38569700D02*
X122411905Y-38522080D01*
X118955655Y-70017319D02*
X118955655Y-69017319D01*
X118955655Y-69017319D02*
X119193750Y-69017319D01*
X119193750Y-69017319D02*
X119336607Y-69064938D01*
X119336607Y-69064938D02*
X119431845Y-69160176D01*
X119431845Y-69160176D02*
X119479464Y-69255414D01*
X119479464Y-69255414D02*
X119527083Y-69445890D01*
X119527083Y-69445890D02*
X119527083Y-69588747D01*
X119527083Y-69588747D02*
X119479464Y-69779223D01*
X119479464Y-69779223D02*
X119431845Y-69874461D01*
X119431845Y-69874461D02*
X119336607Y-69969700D01*
X119336607Y-69969700D02*
X119193750Y-70017319D01*
X119193750Y-70017319D02*
X118955655Y-70017319D01*
X120479464Y-70017319D02*
X119908036Y-70017319D01*
X120193750Y-70017319D02*
X120193750Y-69017319D01*
X120193750Y-69017319D02*
X120098512Y-69160176D01*
X120098512Y-69160176D02*
X120003274Y-69255414D01*
X120003274Y-69255414D02*
X119908036Y-69303033D01*
X116722321Y-71799795D02*
X116265178Y-71799795D01*
X116493750Y-71799795D02*
X116493750Y-70999795D01*
X116493750Y-70999795D02*
X116417559Y-71114080D01*
X116417559Y-71114080D02*
X116341369Y-71190271D01*
X116341369Y-71190271D02*
X116265178Y-71228366D01*
X84391667Y-40158200D02*
X84534524Y-40205819D01*
X84534524Y-40205819D02*
X84772619Y-40205819D01*
X84772619Y-40205819D02*
X84867857Y-40158200D01*
X84867857Y-40158200D02*
X84915476Y-40110580D01*
X84915476Y-40110580D02*
X84963095Y-40015342D01*
X84963095Y-40015342D02*
X84963095Y-39920104D01*
X84963095Y-39920104D02*
X84915476Y-39824866D01*
X84915476Y-39824866D02*
X84867857Y-39777247D01*
X84867857Y-39777247D02*
X84772619Y-39729628D01*
X84772619Y-39729628D02*
X84582143Y-39682009D01*
X84582143Y-39682009D02*
X84486905Y-39634390D01*
X84486905Y-39634390D02*
X84439286Y-39586771D01*
X84439286Y-39586771D02*
X84391667Y-39491533D01*
X84391667Y-39491533D02*
X84391667Y-39396295D01*
X84391667Y-39396295D02*
X84439286Y-39301057D01*
X84439286Y-39301057D02*
X84486905Y-39253438D01*
X84486905Y-39253438D02*
X84582143Y-39205819D01*
X84582143Y-39205819D02*
X84820238Y-39205819D01*
X84820238Y-39205819D02*
X84963095Y-39253438D01*
X85296429Y-39205819D02*
X85534524Y-40205819D01*
X85534524Y-40205819D02*
X85725000Y-39491533D01*
X85725000Y-39491533D02*
X85915476Y-40205819D01*
X85915476Y-40205819D02*
X86153572Y-39205819D01*
X87058333Y-40205819D02*
X86486905Y-40205819D01*
X86772619Y-40205819D02*
X86772619Y-39205819D01*
X86772619Y-39205819D02*
X86677381Y-39348676D01*
X86677381Y-39348676D02*
X86582143Y-39443914D01*
X86582143Y-39443914D02*
X86486905Y-39491533D01*
X103441667Y-40158200D02*
X103584524Y-40205819D01*
X103584524Y-40205819D02*
X103822619Y-40205819D01*
X103822619Y-40205819D02*
X103917857Y-40158200D01*
X103917857Y-40158200D02*
X103965476Y-40110580D01*
X103965476Y-40110580D02*
X104013095Y-40015342D01*
X104013095Y-40015342D02*
X104013095Y-39920104D01*
X104013095Y-39920104D02*
X103965476Y-39824866D01*
X103965476Y-39824866D02*
X103917857Y-39777247D01*
X103917857Y-39777247D02*
X103822619Y-39729628D01*
X103822619Y-39729628D02*
X103632143Y-39682009D01*
X103632143Y-39682009D02*
X103536905Y-39634390D01*
X103536905Y-39634390D02*
X103489286Y-39586771D01*
X103489286Y-39586771D02*
X103441667Y-39491533D01*
X103441667Y-39491533D02*
X103441667Y-39396295D01*
X103441667Y-39396295D02*
X103489286Y-39301057D01*
X103489286Y-39301057D02*
X103536905Y-39253438D01*
X103536905Y-39253438D02*
X103632143Y-39205819D01*
X103632143Y-39205819D02*
X103870238Y-39205819D01*
X103870238Y-39205819D02*
X104013095Y-39253438D01*
X104346429Y-39205819D02*
X104584524Y-40205819D01*
X104584524Y-40205819D02*
X104775000Y-39491533D01*
X104775000Y-39491533D02*
X104965476Y-40205819D01*
X104965476Y-40205819D02*
X105203572Y-39205819D01*
X105536905Y-39301057D02*
X105584524Y-39253438D01*
X105584524Y-39253438D02*
X105679762Y-39205819D01*
X105679762Y-39205819D02*
X105917857Y-39205819D01*
X105917857Y-39205819D02*
X106013095Y-39253438D01*
X106013095Y-39253438D02*
X106060714Y-39301057D01*
X106060714Y-39301057D02*
X106108333Y-39396295D01*
X106108333Y-39396295D02*
X106108333Y-39491533D01*
X106108333Y-39491533D02*
X106060714Y-39634390D01*
X106060714Y-39634390D02*
X105489286Y-40205819D01*
X105489286Y-40205819D02*
X106108333Y-40205819D01*
D13*
%TO.C,SW3*%
X78740000Y-59690000D02*
X92710000Y-59690000D01*
X78740000Y-73660000D02*
X78740000Y-59690000D01*
X92710000Y-59690000D02*
X92710000Y-73660000D01*
X92710000Y-73660000D02*
X78740000Y-73660000D01*
D14*
%TO.C,U1*%
X124460000Y-77851000D02*
X124460000Y-94996000D01*
D10*
X126365000Y-96901000D02*
X140335000Y-96901000D01*
D14*
X126365000Y-96901000D02*
X140335000Y-96901000D01*
X128846000Y-97811000D02*
X128846000Y-96901000D01*
X137341272Y-98311000D02*
X129346000Y-98311000D01*
X137845000Y-96901000D02*
X137841272Y-97811272D01*
X140335000Y-75946000D02*
X126365000Y-75946000D01*
X142240000Y-77851000D02*
X142240000Y-94996000D01*
X124460000Y-77851000D02*
G75*
G02*
X126365000Y-75946000I1905000J0D01*
G01*
X126365000Y-96901000D02*
G75*
G02*
X124460000Y-94996000I0J1905000D01*
G01*
X129346000Y-98311000D02*
G75*
G02*
X128846000Y-97811000I0J500000D01*
G01*
X137841272Y-97811272D02*
G75*
G02*
X137341272Y-98310999I-500018J291D01*
G01*
X140335000Y-75946000D02*
G75*
G02*
X142240000Y-77851000I-1J-1905001D01*
G01*
X142240000Y-94996000D02*
G75*
G02*
X140335000Y-96901000I-1905001J1D01*
G01*
D15*
X141409000Y-95780000D02*
G75*
G02*
X140905000Y-95780000I-252000J0D01*
G01*
X140905000Y-95780000D02*
G75*
G02*
X141409000Y-95780000I252000J0D01*
G01*
X142552000Y-96660000D02*
G75*
G02*
X142048000Y-96660000I-252000J0D01*
G01*
X142048000Y-96660000D02*
G75*
G02*
X142552000Y-96660000I252000J0D01*
G01*
D13*
%TO.C,D2*%
X126418750Y-70312500D02*
X126418750Y-74312500D01*
X126418750Y-70312500D02*
X132018750Y-70312500D01*
X126418750Y-74312500D02*
X131418750Y-74312500D01*
X132018750Y-73712500D02*
X131418750Y-74312500D01*
X132018750Y-73712500D02*
X132018750Y-70312500D01*
%TO.C,U2*%
X118390000Y-66150000D02*
X119770000Y-66150000D01*
X119770000Y-64770000D02*
X119770000Y-66150000D01*
X116890000Y-66960000D02*
X154890000Y-66960000D01*
X154890000Y-54960000D01*
X116890000Y-54960000D01*
X116890000Y-66960000D01*
%TO.C,SW4*%
X97790000Y-59690000D02*
X111760000Y-59690000D01*
X97790000Y-73660000D02*
X97790000Y-59690000D01*
X111760000Y-59690000D02*
X111760000Y-73660000D01*
X111760000Y-73660000D02*
X97790000Y-73660000D01*
%TO.C,SW5*%
X118550000Y-41262500D02*
X119150000Y-41262500D01*
X118850000Y-41562500D02*
X118550000Y-41262500D01*
X119150000Y-41262500D02*
X118850000Y-41562500D01*
X120250000Y-39462500D02*
X120250000Y-51262500D01*
X124350000Y-39462500D02*
X120250000Y-39462500D01*
X124350000Y-51262500D02*
X120250000Y-51262500D01*
X125850000Y-45362500D02*
X126850000Y-45362500D01*
X126350000Y-44862500D02*
X126350000Y-45862500D01*
X128350000Y-39462500D02*
X132450000Y-39462500D01*
X132450000Y-39462500D02*
X132450000Y-41862500D01*
X132450000Y-44062500D02*
X132450000Y-46662500D01*
X132450000Y-48862500D02*
X132450000Y-51262500D01*
X132450000Y-51262500D02*
X128350000Y-51262500D01*
X129350000Y-45362500D02*
G75*
G02*
X123350000Y-45362500I-3000000J0D01*
G01*
X123350000Y-45362500D02*
G75*
G02*
X129350000Y-45362500I3000000J0D01*
G01*
%TO.C,D1*%
X116893750Y-70312500D02*
X116893750Y-74312500D01*
X116893750Y-70312500D02*
X122493750Y-70312500D01*
X116893750Y-74312500D02*
X121893750Y-74312500D01*
X122493750Y-73712500D02*
X121893750Y-74312500D01*
X122493750Y-73712500D02*
X122493750Y-70312500D01*
%TO.C,SW1*%
X78740000Y-40640000D02*
X92710000Y-40640000D01*
X78740000Y-54610000D02*
X78740000Y-40640000D01*
X92710000Y-40640000D02*
X92710000Y-54610000D01*
X92710000Y-54610000D02*
X78740000Y-54610000D01*
%TO.C,SW2*%
X97790000Y-40640000D02*
X111760000Y-40640000D01*
X97790000Y-54610000D02*
X97790000Y-40640000D01*
X111760000Y-40640000D02*
X111760000Y-54610000D01*
X111760000Y-54610000D02*
X97790000Y-54610000D01*
%TD*%
M02*
