%TF.GenerationSoftware,KiCad,Pcbnew,9.0.7*%
%TF.CreationDate,2026-02-07T12:31:03+00:00*%
%TF.ProjectId,micro discord board,6d696372-6f20-4646-9973-636f72642062,rev?*%
%TF.SameCoordinates,Original*%
%TF.FileFunction,Paste,Top*%
%TF.FilePolarity,Positive*%
%FSLAX46Y46*%
G04 Gerber Fmt 4.6, Leading zero omitted, Abs format (unit mm)*
G04 Created by KiCad (PCBNEW 9.0.7) date 2026-02-07 12:31:03*
%MOMM*%
%LPD*%
G01*
G04 APERTURE LIST*
%ADD10R,1.600000X0.850000*%
%ADD11R,0.400000X2.000000*%
G04 APERTURE END LIST*
D10*
%TO.C,D2*%
X79212500Y-80087500D03*
X79212500Y-81837500D03*
X82712500Y-81837500D03*
X82712500Y-80087500D03*
%TD*%
D11*
%TO.C,DS1*%
X117668750Y-64293750D03*
X118368750Y-64293750D03*
X119068750Y-64293750D03*
X119768750Y-64293750D03*
X120468750Y-64293750D03*
X121168750Y-64293750D03*
X121868750Y-64293750D03*
X122568750Y-64293750D03*
X123268750Y-64293750D03*
X123968750Y-64293750D03*
X124668750Y-64293750D03*
X125368750Y-64293750D03*
X126068750Y-64293750D03*
X126768750Y-64293750D03*
X127468750Y-64293750D03*
X128168750Y-64293750D03*
X128868750Y-64293750D03*
X129568750Y-64293750D03*
X130268750Y-64293750D03*
X130968750Y-64293750D03*
X131668750Y-64293750D03*
X132368750Y-64293750D03*
X133068750Y-64293750D03*
X133768750Y-64293750D03*
X134468750Y-64293750D03*
X135168750Y-64293750D03*
X135868750Y-64293750D03*
X136568750Y-64293750D03*
X137268750Y-64293750D03*
X137968750Y-64293750D03*
%TD*%
D10*
%TO.C,D1*%
X86987500Y-80087500D03*
X86987500Y-81837500D03*
X90487500Y-81837500D03*
X90487500Y-80087500D03*
%TD*%
M02*
