%TF.GenerationSoftware,KiCad,Pcbnew,9.0.7*%
%TF.CreationDate,2026-02-07T12:31:03+00:00*%
%TF.ProjectId,micro discord board,6d696372-6f20-4646-9973-636f72642062,rev?*%
%TF.SameCoordinates,Original*%
%TF.FileFunction,Copper,L1,Top*%
%TF.FilePolarity,Positive*%
%FSLAX46Y46*%
G04 Gerber Fmt 4.6, Leading zero omitted, Abs format (unit mm)*
G04 Created by KiCad (PCBNEW 9.0.7) date 2026-02-07 12:31:03*
%MOMM*%
%LPD*%
G01*
G04 APERTURE LIST*
G04 Aperture macros list*
%AMRoundRect*
0 Rectangle with rounded corners*
0 $1 Rounding radius*
0 $2 $3 $4 $5 $6 $7 $8 $9 X,Y pos of 4 corners*
0 Add a 4 corners polygon primitive as box body*
4,1,4,$2,$3,$4,$5,$6,$7,$8,$9,$2,$3,0*
0 Add four circle primitives for the rounded corners*
1,1,$1+$1,$2,$3*
1,1,$1+$1,$4,$5*
1,1,$1+$1,$6,$7*
1,1,$1+$1,$8,$9*
0 Add four rect primitives between the rounded corners*
20,1,$1+$1,$2,$3,$4,$5,0*
20,1,$1+$1,$4,$5,$6,$7,0*
20,1,$1+$1,$6,$7,$8,$9,0*
20,1,$1+$1,$8,$9,$2,$3,0*%
G04 Aperture macros list end*
%TA.AperFunction,ComponentPad*%
%ADD10C,2.200000*%
%TD*%
%TA.AperFunction,SMDPad,CuDef*%
%ADD11R,1.600000X0.850000*%
%TD*%
%TA.AperFunction,SMDPad,CuDef*%
%ADD12R,0.400000X2.000000*%
%TD*%
%TA.AperFunction,ComponentPad*%
%ADD13R,2.000000X2.000000*%
%TD*%
%TA.AperFunction,ComponentPad*%
%ADD14C,2.000000*%
%TD*%
%TA.AperFunction,ComponentPad*%
%ADD15R,3.200000X2.000000*%
%TD*%
%TA.AperFunction,ComponentPad*%
%ADD16RoundRect,0.250000X0.550000X0.550000X-0.550000X0.550000X-0.550000X-0.550000X0.550000X-0.550000X0*%
%TD*%
%TA.AperFunction,ComponentPad*%
%ADD17C,1.600000*%
%TD*%
%TA.AperFunction,ViaPad*%
%ADD18C,0.600000*%
%TD*%
%TA.AperFunction,Conductor*%
%ADD19C,0.200000*%
%TD*%
G04 APERTURE END LIST*
D10*
%TO.P,SW3,1,1*%
%TO.N,GND*%
X88265000Y-61595000D03*
%TO.P,SW3,2,2*%
%TO.N,Net-(U1-GPIO28{slash}ADC2{slash}A2)*%
X81915000Y-64135000D03*
%TD*%
D11*
%TO.P,D2,1,DOUT*%
%TO.N,unconnected-(D2-DOUT-Pad1)*%
X79212500Y-80087500D03*
%TO.P,D2,2,VSS*%
%TO.N,GND*%
X79212500Y-81837500D03*
%TO.P,D2,3,DIN*%
%TO.N,Net-(D1-DOUT)*%
X82712500Y-81837500D03*
%TO.P,D2,4,VDD*%
%TO.N,+5V*%
X82712500Y-80087500D03*
%TD*%
D10*
%TO.P,SW4,1,1*%
%TO.N,GND*%
X107315000Y-61595000D03*
%TO.P,SW4,2,2*%
%TO.N,Net-(U1-GPIO29{slash}ADC3{slash}A3)*%
X100965000Y-64135000D03*
%TD*%
D12*
%TO.P,DS1,1,GND*%
%TO.N,GND*%
X117668750Y-64293750D03*
%TO.P,DS1,2,C2N*%
%TO.N,unconnected-(DS1-C2N-Pad2)*%
X118368750Y-64293750D03*
%TO.P,DS1,3,C2P*%
%TO.N,unconnected-(DS1-C2P-Pad3)*%
X119068750Y-64293750D03*
%TO.P,DS1,4,C1P*%
%TO.N,unconnected-(DS1-C1P-Pad4)*%
X119768750Y-64293750D03*
%TO.P,DS1,5,C1N*%
%TO.N,unconnected-(DS1-C1N-Pad5)*%
X120468750Y-64293750D03*
%TO.P,DS1,6,VBAT*%
%TO.N,unconnected-(DS1-VBAT-Pad6)*%
X121168750Y-64293750D03*
%TO.P,DS1,7,NC*%
%TO.N,unconnected-(DS1-NC-Pad7)*%
X121868750Y-64293750D03*
%TO.P,DS1,8,VSS*%
%TO.N,+5V*%
X122568750Y-64293750D03*
%TO.P,DS1,9,VDD*%
%TO.N,unconnected-(DS1-VDD-Pad9)*%
X123268750Y-64293750D03*
%TO.P,DS1,10,BS0*%
%TO.N,unconnected-(DS1-BS0-Pad10)*%
X123968750Y-64293750D03*
%TO.P,DS1,11,BS1*%
%TO.N,unconnected-(DS1-BS1-Pad11)*%
X124668750Y-64293750D03*
%TO.P,DS1,12,BS2*%
%TO.N,unconnected-(DS1-BS2-Pad12)*%
X125368750Y-64293750D03*
%TO.P,DS1,13,~{CS}*%
%TO.N,Net-(DS1-~{CS})*%
X126068750Y-64293750D03*
%TO.P,DS1,14,~{RES}*%
%TO.N,Net-(DS1-~{RES})*%
X126768750Y-64293750D03*
%TO.P,DS1,15,D/~{C}*%
%TO.N,Net-(DS1-D{slash}~{C})*%
X127468750Y-64293750D03*
%TO.P,DS1,16,R/~{W}*%
%TO.N,unconnected-(DS1-R{slash}~{W}-Pad16)*%
X128168750Y-64293750D03*
%TO.P,DS1,17,E/~{RD}*%
%TO.N,unconnected-(DS1-E{slash}~{RD}-Pad17)*%
X128868750Y-64293750D03*
%TO.P,DS1,18,D0*%
%TO.N,unconnected-(DS1-D0-Pad18)*%
X129568750Y-64293750D03*
%TO.P,DS1,19,D1*%
%TO.N,unconnected-(DS1-D1-Pad19)*%
X130268750Y-64293750D03*
%TO.P,DS1,20,D2*%
%TO.N,unconnected-(DS1-D2-Pad20)*%
X130968750Y-64293750D03*
%TO.P,DS1,21,D3*%
%TO.N,unconnected-(DS1-D3-Pad21)*%
X131668750Y-64293750D03*
%TO.P,DS1,22,D4*%
%TO.N,unconnected-(DS1-D4-Pad22)*%
X132368750Y-64293750D03*
%TO.P,DS1,23,D5*%
%TO.N,unconnected-(DS1-D5-Pad23)*%
X133068750Y-64293750D03*
%TO.P,DS1,24,D6*%
%TO.N,unconnected-(DS1-D6-Pad24)*%
X133768750Y-64293750D03*
%TO.P,DS1,25,D7*%
%TO.N,unconnected-(DS1-D7-Pad25)*%
X134468750Y-64293750D03*
%TO.P,DS1,26,IREF*%
%TO.N,unconnected-(DS1-IREF-Pad26)*%
X135168750Y-64293750D03*
%TO.P,DS1,27,VCOMH*%
%TO.N,unconnected-(DS1-VCOMH-Pad27)*%
X135868750Y-64293750D03*
%TO.P,DS1,28,VCC*%
%TO.N,unconnected-(DS1-VCC-Pad28)*%
X136568750Y-64293750D03*
%TO.P,DS1,29,VLSS*%
%TO.N,unconnected-(DS1-VLSS-Pad29)*%
X137268750Y-64293750D03*
%TO.P,DS1,30,GND*%
%TO.N,GND*%
X137968750Y-64293750D03*
%TD*%
D13*
%TO.P,SW5,A,A*%
%TO.N,Net-(U1-GPIO2{slash}SCK)*%
X118850000Y-42862500D03*
D14*
%TO.P,SW5,B,B*%
%TO.N,Net-(U1-GPIO1{slash}RX)*%
X118850000Y-47862500D03*
%TO.P,SW5,C,C*%
%TO.N,GND*%
X118850000Y-45362500D03*
D15*
%TO.P,SW5,MP*%
%TO.N,N/C*%
X126350000Y-39762500D03*
X126350000Y-50962500D03*
D14*
%TO.P,SW5,S1*%
X133350000Y-47862500D03*
%TO.P,SW5,S2*%
X133350000Y-42862500D03*
%TD*%
D16*
%TO.P,U1,1,GPIO26/ADC0/A0*%
%TO.N,Net-(U1-GPIO26{slash}ADC0{slash}A0)*%
X123825000Y-91122500D03*
D17*
%TO.P,U1,2,GPIO27/ADC1/A1*%
%TO.N,Net-(U1-GPIO27{slash}ADC1{slash}A1)*%
X123825000Y-88582500D03*
%TO.P,U1,3,GPIO28/ADC2/A2*%
%TO.N,Net-(U1-GPIO28{slash}ADC2{slash}A2)*%
X123825000Y-86042500D03*
%TO.P,U1,4,GPIO29/ADC3/A3*%
%TO.N,Net-(U1-GPIO29{slash}ADC3{slash}A3)*%
X123825000Y-83502500D03*
%TO.P,U1,5,GPIO6/SDA*%
%TO.N,Net-(DS1-~{CS})*%
X123825000Y-80962500D03*
%TO.P,U1,6,GPIO7/SCL*%
%TO.N,unconnected-(U1-GPIO7{slash}SCL-Pad6)*%
X123825000Y-78422500D03*
%TO.P,U1,7,GPIO0/TX*%
%TO.N,Net-(DS1-~{RES})*%
X123825000Y-75882500D03*
%TO.P,U1,8,GPIO1/RX*%
%TO.N,Net-(U1-GPIO1{slash}RX)*%
X116205000Y-75882500D03*
%TO.P,U1,9,GPIO2/SCK*%
%TO.N,Net-(U1-GPIO2{slash}SCK)*%
X116205000Y-78422500D03*
%TO.P,U1,10,GPIO4/MISO*%
%TO.N,Net-(DS1-D{slash}~{C})*%
X116205000Y-80962500D03*
%TO.P,U1,11,GPIO3/MOSI*%
%TO.N,Net-(D1-DIN)*%
X116205000Y-83502500D03*
%TO.P,U1,12,3V3*%
%TO.N,unconnected-(U1-3V3-Pad12)*%
X116205000Y-86042500D03*
%TO.P,U1,13,GND*%
%TO.N,GND*%
X116205000Y-88582500D03*
%TO.P,U1,14,VBUS*%
%TO.N,+5V*%
X116205000Y-91122500D03*
%TD*%
D11*
%TO.P,D1,1,DOUT*%
%TO.N,Net-(D1-DOUT)*%
X86987500Y-80087500D03*
%TO.P,D1,2,VSS*%
%TO.N,GND*%
X86987500Y-81837500D03*
%TO.P,D1,3,DIN*%
%TO.N,Net-(D1-DIN)*%
X90487500Y-81837500D03*
%TO.P,D1,4,VDD*%
%TO.N,+5V*%
X90487500Y-80087500D03*
%TD*%
D10*
%TO.P,SW1,1,1*%
%TO.N,GND*%
X88265000Y-42545000D03*
%TO.P,SW1,2,2*%
%TO.N,Net-(U1-GPIO26{slash}ADC0{slash}A0)*%
X81915000Y-45085000D03*
%TD*%
%TO.P,SW2,1,1*%
%TO.N,GND*%
X107315000Y-42545000D03*
%TO.P,SW2,2,2*%
%TO.N,Net-(U1-GPIO27{slash}ADC1{slash}A1)*%
X100965000Y-45085000D03*
%TD*%
D18*
%TO.N,GND*%
X102393750Y-69056250D03*
%TO.N,+5V*%
X137368750Y-61912500D03*
%TO.N,Net-(D1-DIN)*%
X95250000Y-85725000D03*
%TO.N,Net-(DS1-~{CS})*%
X126206250Y-62512500D03*
%TO.N,Net-(DS1-~{RES})*%
X127201472Y-62512500D03*
%TO.N,Net-(DS1-D{slash}~{C})*%
X130968750Y-62512500D03*
%TO.N,Net-(U1-GPIO29{slash}ADC3{slash}A3)*%
X102226035Y-66602324D03*
%TO.N,Net-(U1-GPIO1{slash}RX)*%
X117105515Y-66250735D03*
%TD*%
D19*
%TO.N,GND*%
X81611500Y-82563500D02*
X81611500Y-79361500D01*
X79043000Y-63244314D02*
X79043000Y-45408586D01*
X86436314Y-61595000D02*
X82495314Y-65536000D01*
X117668750Y-65493750D02*
X117668750Y-64293750D01*
X93732500Y-88582500D02*
X116205000Y-88582500D01*
X81906586Y-42545000D02*
X107315000Y-42545000D01*
X79043000Y-45408586D02*
X81906586Y-42545000D01*
X107315000Y-42545000D02*
X116032500Y-42545000D01*
X98494000Y-45574686D02*
X98494000Y-52774000D01*
X86987500Y-81837500D02*
X86261500Y-82563500D01*
X81906586Y-42545000D02*
X88265000Y-42545000D01*
X91916750Y-69056250D02*
X102393750Y-69056250D01*
X88265000Y-61595000D02*
X86436314Y-61595000D01*
X137769750Y-65594750D02*
X117769750Y-65594750D01*
X123952000Y-45362500D02*
X137968750Y-59379250D01*
X107315000Y-42545000D02*
X101523686Y-42545000D01*
X86261500Y-82563500D02*
X81611500Y-82563500D01*
X98494000Y-52774000D02*
X107315000Y-61595000D01*
X88265000Y-61595000D02*
X88265000Y-72785000D01*
X137968750Y-65395750D02*
X137769750Y-65594750D01*
X79212500Y-81837500D02*
X82856250Y-85481250D01*
X82856250Y-85481250D02*
X83343750Y-85481250D01*
X83343750Y-85481250D02*
X86987500Y-81837500D01*
X81334686Y-65536000D02*
X79043000Y-63244314D01*
X101523686Y-42545000D02*
X98494000Y-45574686D01*
X137968750Y-59379250D02*
X137968750Y-64293750D01*
X137968750Y-64293750D02*
X137968750Y-65395750D01*
X117769750Y-65594750D02*
X117668750Y-65493750D01*
X118850000Y-45362500D02*
X123952000Y-45362500D01*
X82495314Y-65536000D02*
X81334686Y-65536000D01*
X88265000Y-42545000D02*
X107315000Y-42545000D01*
X86987500Y-81837500D02*
X93732500Y-88582500D01*
X88265000Y-72785000D02*
X79212500Y-81837500D01*
X81611500Y-79361500D02*
X91916750Y-69056250D01*
X116032500Y-42545000D02*
X118850000Y-45362500D01*
%TO.N,+5V*%
X117306000Y-88126450D02*
X116661050Y-87481500D01*
X122568750Y-63093750D02*
X123750000Y-61912500D01*
X82712500Y-80087500D02*
X83438500Y-79361500D01*
X89761500Y-79361500D02*
X90487500Y-80087500D01*
X123750000Y-61912500D02*
X137368750Y-61912500D01*
X117306000Y-90021500D02*
X117306000Y-88126450D01*
X97881500Y-87481500D02*
X90487500Y-80087500D01*
X116205000Y-91122500D02*
X117306000Y-90021500D01*
X122568750Y-64293750D02*
X122568750Y-63093750D01*
X116661050Y-87481500D02*
X97881500Y-87481500D01*
X83438500Y-79361500D02*
X89761500Y-79361500D01*
%TO.N,Net-(D1-DOUT)*%
X85237500Y-81837500D02*
X86987500Y-80087500D01*
X82712500Y-81837500D02*
X85237500Y-81837500D01*
%TO.N,Net-(D1-DIN)*%
X90487500Y-81837500D02*
X94375000Y-85725000D01*
X116205000Y-83502500D02*
X116522500Y-83502500D01*
X116522500Y-83502500D02*
X116681250Y-83343750D01*
X94375000Y-85725000D02*
X95250000Y-85725000D01*
%TO.N,Net-(DS1-~{CS})*%
X126068750Y-62650000D02*
X126206250Y-62512500D01*
X126068750Y-64293750D02*
X126068750Y-62650000D01*
X123825000Y-80962500D02*
X124525000Y-80962500D01*
%TO.N,Net-(DS1-~{RES})*%
X126768750Y-64293750D02*
X126768750Y-62945222D01*
X126768750Y-62945222D02*
X127201472Y-62512500D01*
%TO.N,Net-(DS1-D{slash}~{C})*%
X128050000Y-62512500D02*
X130968750Y-62512500D01*
X127468750Y-64293750D02*
X127468750Y-63093750D01*
X127468750Y-63093750D02*
X128050000Y-62512500D01*
%TO.N,Net-(U1-GPIO26{slash}ADC0{slash}A0)*%
X115748950Y-82401500D02*
X116661050Y-82401500D01*
X116661050Y-82401500D02*
X117306000Y-83046450D01*
X117306000Y-83046450D02*
X117306000Y-84603500D01*
X81915000Y-45085000D02*
X81915000Y-47139816D01*
X117306000Y-84603500D02*
X123825000Y-91122500D01*
X81915000Y-47139816D02*
X114298684Y-79523500D01*
X114298684Y-79523500D02*
X114298684Y-80951234D01*
X114298684Y-80951234D02*
X115748950Y-82401500D01*
%TO.N,Net-(U1-GPIO27{slash}ADC1{slash}A1)*%
X124926000Y-87481500D02*
X123825000Y-88582500D01*
X100965000Y-45085000D02*
X100965000Y-50958750D01*
X124926000Y-74919750D02*
X124926000Y-87481500D01*
X100965000Y-50958750D02*
X124926000Y-74919750D01*
%TO.N,Net-(U1-GPIO28{slash}ADC2{slash}A2)*%
X85108816Y-43684000D02*
X115104000Y-73679184D01*
X81915000Y-64135000D02*
X79444000Y-61664000D01*
X115748950Y-77321500D02*
X116661050Y-77321500D01*
X122724000Y-84941500D02*
X123825000Y-86042500D01*
X122724000Y-83384450D02*
X122724000Y-84941500D01*
X79444000Y-45574686D02*
X81334686Y-43684000D01*
X79444000Y-61664000D02*
X79444000Y-45574686D01*
X81334686Y-43684000D02*
X85108816Y-43684000D01*
X116661050Y-77321500D02*
X122724000Y-83384450D01*
X115104000Y-76676550D02*
X115748950Y-77321500D01*
X115104000Y-73679184D02*
X115104000Y-76676550D01*
%TO.N,Net-(U1-GPIO29{slash}ADC3{slash}A3)*%
X100965000Y-64135000D02*
X102226035Y-65396035D01*
X102226035Y-65396035D02*
X102226035Y-66602324D01*
%TO.N,Net-(U1-GPIO2{slash}SCK)*%
X118850000Y-42862500D02*
X122019100Y-42862500D01*
X138469750Y-59313150D02*
X138469750Y-75494800D01*
X122019100Y-42862500D02*
X138469750Y-59313150D01*
X122323000Y-88637550D02*
X122323000Y-84540500D01*
X122323000Y-84540500D02*
X116205000Y-78422500D01*
X123368950Y-89683500D02*
X122323000Y-88637550D01*
X138469750Y-75494800D02*
X124281050Y-89683500D01*
X124281050Y-89683500D02*
X123368950Y-89683500D01*
%TO.N,Net-(U1-GPIO1{slash}RX)*%
X117105515Y-49606985D02*
X117105515Y-66250735D01*
X118850000Y-47862500D02*
X117105515Y-49606985D01*
%TD*%
M02*
