%TF.GenerationSoftware,KiCad,Pcbnew,9.0.7*%
%TF.CreationDate,2026-02-07T12:31:03+00:00*%
%TF.ProjectId,micro discord board,6d696372-6f20-4646-9973-636f72642062,rev?*%
%TF.SameCoordinates,Original*%
%TF.FileFunction,Soldermask,Bot*%
%TF.FilePolarity,Negative*%
%FSLAX46Y46*%
G04 Gerber Fmt 4.6, Leading zero omitted, Abs format (unit mm)*
G04 Created by KiCad (PCBNEW 9.0.7) date 2026-02-07 12:31:03*
%MOMM*%
%LPD*%
G01*
G04 APERTURE LIST*
G04 Aperture macros list*
%AMRoundRect*
0 Rectangle with rounded corners*
0 $1 Rounding radius*
0 $2 $3 $4 $5 $6 $7 $8 $9 X,Y pos of 4 corners*
0 Add a 4 corners polygon primitive as box body*
4,1,4,$2,$3,$4,$5,$6,$7,$8,$9,$2,$3,0*
0 Add four circle primitives for the rounded corners*
1,1,$1+$1,$2,$3*
1,1,$1+$1,$4,$5*
1,1,$1+$1,$6,$7*
1,1,$1+$1,$8,$9*
0 Add four rect primitives between the rounded corners*
20,1,$1+$1,$2,$3,$4,$5,0*
20,1,$1+$1,$4,$5,$6,$7,0*
20,1,$1+$1,$6,$7,$8,$9,0*
20,1,$1+$1,$8,$9,$2,$3,0*%
G04 Aperture macros list end*
%ADD10C,1.700000*%
%ADD11C,4.000000*%
%ADD12C,2.200000*%
%ADD13R,2.000000X2.000000*%
%ADD14C,2.000000*%
%ADD15R,3.200000X2.000000*%
%ADD16RoundRect,0.250000X0.550000X0.550000X-0.550000X0.550000X-0.550000X-0.550000X0.550000X-0.550000X0*%
%ADD17C,1.600000*%
G04 APERTURE END LIST*
D10*
%TO.C,SW3*%
X80645000Y-66675000D03*
D11*
X85725000Y-66675000D03*
D10*
X90805000Y-66675000D03*
D12*
X88265000Y-61595000D03*
X81915000Y-64135000D03*
%TD*%
D10*
%TO.C,SW4*%
X99695000Y-66675000D03*
D11*
X104775000Y-66675000D03*
D10*
X109855000Y-66675000D03*
D12*
X107315000Y-61595000D03*
X100965000Y-64135000D03*
%TD*%
D13*
%TO.C,SW5*%
X118850000Y-42862500D03*
D14*
X118850000Y-47862500D03*
X118850000Y-45362500D03*
D15*
X126350000Y-39762500D03*
X126350000Y-50962500D03*
D14*
X133350000Y-47862500D03*
X133350000Y-42862500D03*
%TD*%
D16*
%TO.C,U1*%
X123825000Y-91122500D03*
D17*
X123825000Y-88582500D03*
X123825000Y-86042500D03*
X123825000Y-83502500D03*
X123825000Y-80962500D03*
X123825000Y-78422500D03*
X123825000Y-75882500D03*
X116205000Y-75882500D03*
X116205000Y-78422500D03*
X116205000Y-80962500D03*
X116205000Y-83502500D03*
X116205000Y-86042500D03*
X116205000Y-88582500D03*
X116205000Y-91122500D03*
%TD*%
D10*
%TO.C,SW1*%
X80645000Y-47625000D03*
D11*
X85725000Y-47625000D03*
D10*
X90805000Y-47625000D03*
D12*
X88265000Y-42545000D03*
X81915000Y-45085000D03*
%TD*%
D10*
%TO.C,SW2*%
X99695000Y-47625000D03*
D11*
X104775000Y-47625000D03*
D10*
X109855000Y-47625000D03*
D12*
X107315000Y-42545000D03*
X100965000Y-45085000D03*
%TD*%
M02*
