%TF.GenerationSoftware,KiCad,Pcbnew,9.0.7*%
%TF.CreationDate,2026-02-07T12:31:03+00:00*%
%TF.ProjectId,micro discord board,6d696372-6f20-4646-9973-636f72642062,rev?*%
%TF.SameCoordinates,Original*%
%TF.FileFunction,Legend,Top*%
%TF.FilePolarity,Positive*%
%FSLAX46Y46*%
G04 Gerber Fmt 4.6, Leading zero omitted, Abs format (unit mm)*
G04 Created by KiCad (PCBNEW 9.0.7) date 2026-02-07 12:31:03*
%MOMM*%
%LPD*%
G01*
G04 APERTURE LIST*
%ADD10C,0.100000*%
%ADD11C,0.150000*%
%ADD12C,0.120000*%
G04 APERTURE END LIST*
D10*
X118934919Y-87897603D02*
X118268252Y-87373794D01*
X118268252Y-87897603D02*
X118934919Y-87373794D01*
X118934919Y-86992841D02*
X118268252Y-86992841D01*
X117934919Y-86992841D02*
X117982538Y-87040460D01*
X117982538Y-87040460D02*
X118030157Y-86992841D01*
X118030157Y-86992841D02*
X117982538Y-86945222D01*
X117982538Y-86945222D02*
X117934919Y-86992841D01*
X117934919Y-86992841D02*
X118030157Y-86992841D01*
X118934919Y-86088080D02*
X118411109Y-86088080D01*
X118411109Y-86088080D02*
X118315871Y-86135699D01*
X118315871Y-86135699D02*
X118268252Y-86230937D01*
X118268252Y-86230937D02*
X118268252Y-86421413D01*
X118268252Y-86421413D02*
X118315871Y-86516651D01*
X118887300Y-86088080D02*
X118934919Y-86183318D01*
X118934919Y-86183318D02*
X118934919Y-86421413D01*
X118934919Y-86421413D02*
X118887300Y-86516651D01*
X118887300Y-86516651D02*
X118792061Y-86564270D01*
X118792061Y-86564270D02*
X118696823Y-86564270D01*
X118696823Y-86564270D02*
X118601585Y-86516651D01*
X118601585Y-86516651D02*
X118553966Y-86421413D01*
X118553966Y-86421413D02*
X118553966Y-86183318D01*
X118553966Y-86183318D02*
X118506347Y-86088080D01*
X118934919Y-85469032D02*
X118887300Y-85564270D01*
X118887300Y-85564270D02*
X118839680Y-85611889D01*
X118839680Y-85611889D02*
X118744442Y-85659508D01*
X118744442Y-85659508D02*
X118458728Y-85659508D01*
X118458728Y-85659508D02*
X118363490Y-85611889D01*
X118363490Y-85611889D02*
X118315871Y-85564270D01*
X118315871Y-85564270D02*
X118268252Y-85469032D01*
X118268252Y-85469032D02*
X118268252Y-85326175D01*
X118268252Y-85326175D02*
X118315871Y-85230937D01*
X118315871Y-85230937D02*
X118363490Y-85183318D01*
X118363490Y-85183318D02*
X118458728Y-85135699D01*
X118458728Y-85135699D02*
X118744442Y-85135699D01*
X118744442Y-85135699D02*
X118839680Y-85183318D01*
X118839680Y-85183318D02*
X118887300Y-85230937D01*
X118887300Y-85230937D02*
X118934919Y-85326175D01*
X118934919Y-85326175D02*
X118934919Y-85469032D01*
X118934919Y-83945222D02*
X117934919Y-83945222D01*
X118934919Y-83516651D02*
X118411109Y-83516651D01*
X118411109Y-83516651D02*
X118315871Y-83564270D01*
X118315871Y-83564270D02*
X118268252Y-83659508D01*
X118268252Y-83659508D02*
X118268252Y-83802365D01*
X118268252Y-83802365D02*
X118315871Y-83897603D01*
X118315871Y-83897603D02*
X118363490Y-83945222D01*
X118887300Y-82659508D02*
X118934919Y-82754746D01*
X118934919Y-82754746D02*
X118934919Y-82945222D01*
X118934919Y-82945222D02*
X118887300Y-83040460D01*
X118887300Y-83040460D02*
X118792061Y-83088079D01*
X118792061Y-83088079D02*
X118411109Y-83088079D01*
X118411109Y-83088079D02*
X118315871Y-83040460D01*
X118315871Y-83040460D02*
X118268252Y-82945222D01*
X118268252Y-82945222D02*
X118268252Y-82754746D01*
X118268252Y-82754746D02*
X118315871Y-82659508D01*
X118315871Y-82659508D02*
X118411109Y-82611889D01*
X118411109Y-82611889D02*
X118506347Y-82611889D01*
X118506347Y-82611889D02*
X118601585Y-83088079D01*
X118934919Y-82183317D02*
X118268252Y-82183317D01*
X118458728Y-82183317D02*
X118363490Y-82135698D01*
X118363490Y-82135698D02*
X118315871Y-82088079D01*
X118315871Y-82088079D02*
X118268252Y-81992841D01*
X118268252Y-81992841D02*
X118268252Y-81897603D01*
X118887300Y-81183317D02*
X118934919Y-81278555D01*
X118934919Y-81278555D02*
X118934919Y-81469031D01*
X118934919Y-81469031D02*
X118887300Y-81564269D01*
X118887300Y-81564269D02*
X118792061Y-81611888D01*
X118792061Y-81611888D02*
X118411109Y-81611888D01*
X118411109Y-81611888D02*
X118315871Y-81564269D01*
X118315871Y-81564269D02*
X118268252Y-81469031D01*
X118268252Y-81469031D02*
X118268252Y-81278555D01*
X118268252Y-81278555D02*
X118315871Y-81183317D01*
X118315871Y-81183317D02*
X118411109Y-81135698D01*
X118411109Y-81135698D02*
X118506347Y-81135698D01*
X118506347Y-81135698D02*
X118601585Y-81611888D01*
X81694955Y-90359919D02*
X81694955Y-89836109D01*
X81694955Y-89836109D02*
X81647336Y-89740871D01*
X81647336Y-89740871D02*
X81552098Y-89693252D01*
X81552098Y-89693252D02*
X81361622Y-89693252D01*
X81361622Y-89693252D02*
X81266384Y-89740871D01*
X81694955Y-90312300D02*
X81599717Y-90359919D01*
X81599717Y-90359919D02*
X81361622Y-90359919D01*
X81361622Y-90359919D02*
X81266384Y-90312300D01*
X81266384Y-90312300D02*
X81218765Y-90217061D01*
X81218765Y-90217061D02*
X81218765Y-90121823D01*
X81218765Y-90121823D02*
X81266384Y-90026585D01*
X81266384Y-90026585D02*
X81361622Y-89978966D01*
X81361622Y-89978966D02*
X81599717Y-89978966D01*
X81599717Y-89978966D02*
X81694955Y-89931347D01*
X82028289Y-89693252D02*
X82409241Y-89693252D01*
X82171146Y-89359919D02*
X82171146Y-90217061D01*
X82171146Y-90217061D02*
X82218765Y-90312300D01*
X82218765Y-90312300D02*
X82314003Y-90359919D01*
X82314003Y-90359919D02*
X82409241Y-90359919D01*
X83171146Y-90359919D02*
X83171146Y-89836109D01*
X83171146Y-89836109D02*
X83123527Y-89740871D01*
X83123527Y-89740871D02*
X83028289Y-89693252D01*
X83028289Y-89693252D02*
X82837813Y-89693252D01*
X82837813Y-89693252D02*
X82742575Y-89740871D01*
X83171146Y-90312300D02*
X83075908Y-90359919D01*
X83075908Y-90359919D02*
X82837813Y-90359919D01*
X82837813Y-90359919D02*
X82742575Y-90312300D01*
X82742575Y-90312300D02*
X82694956Y-90217061D01*
X82694956Y-90217061D02*
X82694956Y-90121823D01*
X82694956Y-90121823D02*
X82742575Y-90026585D01*
X82742575Y-90026585D02*
X82837813Y-89978966D01*
X82837813Y-89978966D02*
X83075908Y-89978966D01*
X83075908Y-89978966D02*
X83171146Y-89931347D01*
X84409242Y-90359919D02*
X84409242Y-89359919D01*
X84409242Y-89740871D02*
X84504480Y-89693252D01*
X84504480Y-89693252D02*
X84694956Y-89693252D01*
X84694956Y-89693252D02*
X84790194Y-89740871D01*
X84790194Y-89740871D02*
X84837813Y-89788490D01*
X84837813Y-89788490D02*
X84885432Y-89883728D01*
X84885432Y-89883728D02*
X84885432Y-90169442D01*
X84885432Y-90169442D02*
X84837813Y-90264680D01*
X84837813Y-90264680D02*
X84790194Y-90312300D01*
X84790194Y-90312300D02*
X84694956Y-90359919D01*
X84694956Y-90359919D02*
X84504480Y-90359919D01*
X84504480Y-90359919D02*
X84409242Y-90312300D01*
X85456861Y-90359919D02*
X85361623Y-90312300D01*
X85361623Y-90312300D02*
X85314004Y-90264680D01*
X85314004Y-90264680D02*
X85266385Y-90169442D01*
X85266385Y-90169442D02*
X85266385Y-89883728D01*
X85266385Y-89883728D02*
X85314004Y-89788490D01*
X85314004Y-89788490D02*
X85361623Y-89740871D01*
X85361623Y-89740871D02*
X85456861Y-89693252D01*
X85456861Y-89693252D02*
X85599718Y-89693252D01*
X85599718Y-89693252D02*
X85694956Y-89740871D01*
X85694956Y-89740871D02*
X85742575Y-89788490D01*
X85742575Y-89788490D02*
X85790194Y-89883728D01*
X85790194Y-89883728D02*
X85790194Y-90169442D01*
X85790194Y-90169442D02*
X85742575Y-90264680D01*
X85742575Y-90264680D02*
X85694956Y-90312300D01*
X85694956Y-90312300D02*
X85599718Y-90359919D01*
X85599718Y-90359919D02*
X85456861Y-90359919D01*
X86123528Y-89693252D02*
X86361623Y-90359919D01*
X86599718Y-89693252D02*
X86361623Y-90359919D01*
X86361623Y-90359919D02*
X86266385Y-90598014D01*
X86266385Y-90598014D02*
X86218766Y-90645633D01*
X86218766Y-90645633D02*
X86123528Y-90693252D01*
X86933052Y-90312300D02*
X87028290Y-90359919D01*
X87028290Y-90359919D02*
X87218766Y-90359919D01*
X87218766Y-90359919D02*
X87314004Y-90312300D01*
X87314004Y-90312300D02*
X87361623Y-90217061D01*
X87361623Y-90217061D02*
X87361623Y-90169442D01*
X87361623Y-90169442D02*
X87314004Y-90074204D01*
X87314004Y-90074204D02*
X87218766Y-90026585D01*
X87218766Y-90026585D02*
X87075909Y-90026585D01*
X87075909Y-90026585D02*
X86980671Y-89978966D01*
X86980671Y-89978966D02*
X86933052Y-89883728D01*
X86933052Y-89883728D02*
X86933052Y-89836109D01*
X86933052Y-89836109D02*
X86980671Y-89740871D01*
X86980671Y-89740871D02*
X87075909Y-89693252D01*
X87075909Y-89693252D02*
X87218766Y-89693252D01*
X87218766Y-89693252D02*
X87314004Y-89740871D01*
X88552100Y-90359919D02*
X88552100Y-89359919D01*
X88980671Y-90359919D02*
X88980671Y-89836109D01*
X88980671Y-89836109D02*
X88933052Y-89740871D01*
X88933052Y-89740871D02*
X88837814Y-89693252D01*
X88837814Y-89693252D02*
X88694957Y-89693252D01*
X88694957Y-89693252D02*
X88599719Y-89740871D01*
X88599719Y-89740871D02*
X88552100Y-89788490D01*
X89885433Y-90359919D02*
X89885433Y-89836109D01*
X89885433Y-89836109D02*
X89837814Y-89740871D01*
X89837814Y-89740871D02*
X89742576Y-89693252D01*
X89742576Y-89693252D02*
X89552100Y-89693252D01*
X89552100Y-89693252D02*
X89456862Y-89740871D01*
X89885433Y-90312300D02*
X89790195Y-90359919D01*
X89790195Y-90359919D02*
X89552100Y-90359919D01*
X89552100Y-90359919D02*
X89456862Y-90312300D01*
X89456862Y-90312300D02*
X89409243Y-90217061D01*
X89409243Y-90217061D02*
X89409243Y-90121823D01*
X89409243Y-90121823D02*
X89456862Y-90026585D01*
X89456862Y-90026585D02*
X89552100Y-89978966D01*
X89552100Y-89978966D02*
X89790195Y-89978966D01*
X89790195Y-89978966D02*
X89885433Y-89931347D01*
X90790195Y-90312300D02*
X90694957Y-90359919D01*
X90694957Y-90359919D02*
X90504481Y-90359919D01*
X90504481Y-90359919D02*
X90409243Y-90312300D01*
X90409243Y-90312300D02*
X90361624Y-90264680D01*
X90361624Y-90264680D02*
X90314005Y-90169442D01*
X90314005Y-90169442D02*
X90314005Y-89883728D01*
X90314005Y-89883728D02*
X90361624Y-89788490D01*
X90361624Y-89788490D02*
X90409243Y-89740871D01*
X90409243Y-89740871D02*
X90504481Y-89693252D01*
X90504481Y-89693252D02*
X90694957Y-89693252D01*
X90694957Y-89693252D02*
X90790195Y-89740871D01*
X91218767Y-90359919D02*
X91218767Y-89359919D01*
X91314005Y-89978966D02*
X91599719Y-90359919D01*
X91599719Y-89693252D02*
X91218767Y-90074204D01*
X92028291Y-89693252D02*
X92028291Y-90693252D01*
X92028291Y-89740871D02*
X92123529Y-89693252D01*
X92123529Y-89693252D02*
X92314005Y-89693252D01*
X92314005Y-89693252D02*
X92409243Y-89740871D01*
X92409243Y-89740871D02*
X92456862Y-89788490D01*
X92456862Y-89788490D02*
X92504481Y-89883728D01*
X92504481Y-89883728D02*
X92504481Y-90169442D01*
X92504481Y-90169442D02*
X92456862Y-90264680D01*
X92456862Y-90264680D02*
X92409243Y-90312300D01*
X92409243Y-90312300D02*
X92314005Y-90359919D01*
X92314005Y-90359919D02*
X92123529Y-90359919D01*
X92123529Y-90359919D02*
X92028291Y-90312300D01*
X93361624Y-90359919D02*
X93361624Y-89836109D01*
X93361624Y-89836109D02*
X93314005Y-89740871D01*
X93314005Y-89740871D02*
X93218767Y-89693252D01*
X93218767Y-89693252D02*
X93028291Y-89693252D01*
X93028291Y-89693252D02*
X92933053Y-89740871D01*
X93361624Y-90312300D02*
X93266386Y-90359919D01*
X93266386Y-90359919D02*
X93028291Y-90359919D01*
X93028291Y-90359919D02*
X92933053Y-90312300D01*
X92933053Y-90312300D02*
X92885434Y-90217061D01*
X92885434Y-90217061D02*
X92885434Y-90121823D01*
X92885434Y-90121823D02*
X92933053Y-90026585D01*
X92933053Y-90026585D02*
X93028291Y-89978966D01*
X93028291Y-89978966D02*
X93266386Y-89978966D01*
X93266386Y-89978966D02*
X93361624Y-89931347D01*
X94266386Y-90359919D02*
X94266386Y-89359919D01*
X94266386Y-90312300D02*
X94171148Y-90359919D01*
X94171148Y-90359919D02*
X93980672Y-90359919D01*
X93980672Y-90359919D02*
X93885434Y-90312300D01*
X93885434Y-90312300D02*
X93837815Y-90264680D01*
X93837815Y-90264680D02*
X93790196Y-90169442D01*
X93790196Y-90169442D02*
X93790196Y-89883728D01*
X93790196Y-89883728D02*
X93837815Y-89788490D01*
X93837815Y-89788490D02*
X93885434Y-89740871D01*
X93885434Y-89740871D02*
X93980672Y-89693252D01*
X93980672Y-89693252D02*
X94171148Y-89693252D01*
X94171148Y-89693252D02*
X94266386Y-89740871D01*
D11*
X84391667Y-59208200D02*
X84534524Y-59255819D01*
X84534524Y-59255819D02*
X84772619Y-59255819D01*
X84772619Y-59255819D02*
X84867857Y-59208200D01*
X84867857Y-59208200D02*
X84915476Y-59160580D01*
X84915476Y-59160580D02*
X84963095Y-59065342D01*
X84963095Y-59065342D02*
X84963095Y-58970104D01*
X84963095Y-58970104D02*
X84915476Y-58874866D01*
X84915476Y-58874866D02*
X84867857Y-58827247D01*
X84867857Y-58827247D02*
X84772619Y-58779628D01*
X84772619Y-58779628D02*
X84582143Y-58732009D01*
X84582143Y-58732009D02*
X84486905Y-58684390D01*
X84486905Y-58684390D02*
X84439286Y-58636771D01*
X84439286Y-58636771D02*
X84391667Y-58541533D01*
X84391667Y-58541533D02*
X84391667Y-58446295D01*
X84391667Y-58446295D02*
X84439286Y-58351057D01*
X84439286Y-58351057D02*
X84486905Y-58303438D01*
X84486905Y-58303438D02*
X84582143Y-58255819D01*
X84582143Y-58255819D02*
X84820238Y-58255819D01*
X84820238Y-58255819D02*
X84963095Y-58303438D01*
X85296429Y-58255819D02*
X85534524Y-59255819D01*
X85534524Y-59255819D02*
X85725000Y-58541533D01*
X85725000Y-58541533D02*
X85915476Y-59255819D01*
X85915476Y-59255819D02*
X86153572Y-58255819D01*
X86439286Y-58255819D02*
X87058333Y-58255819D01*
X87058333Y-58255819D02*
X86725000Y-58636771D01*
X86725000Y-58636771D02*
X86867857Y-58636771D01*
X86867857Y-58636771D02*
X86963095Y-58684390D01*
X86963095Y-58684390D02*
X87010714Y-58732009D01*
X87010714Y-58732009D02*
X87058333Y-58827247D01*
X87058333Y-58827247D02*
X87058333Y-59065342D01*
X87058333Y-59065342D02*
X87010714Y-59160580D01*
X87010714Y-59160580D02*
X86963095Y-59208200D01*
X86963095Y-59208200D02*
X86867857Y-59255819D01*
X86867857Y-59255819D02*
X86582143Y-59255819D01*
X86582143Y-59255819D02*
X86486905Y-59208200D01*
X86486905Y-59208200D02*
X86439286Y-59160580D01*
X80224405Y-78667319D02*
X80224405Y-77667319D01*
X80224405Y-77667319D02*
X80462500Y-77667319D01*
X80462500Y-77667319D02*
X80605357Y-77714938D01*
X80605357Y-77714938D02*
X80700595Y-77810176D01*
X80700595Y-77810176D02*
X80748214Y-77905414D01*
X80748214Y-77905414D02*
X80795833Y-78095890D01*
X80795833Y-78095890D02*
X80795833Y-78238747D01*
X80795833Y-78238747D02*
X80748214Y-78429223D01*
X80748214Y-78429223D02*
X80700595Y-78524461D01*
X80700595Y-78524461D02*
X80605357Y-78619700D01*
X80605357Y-78619700D02*
X80462500Y-78667319D01*
X80462500Y-78667319D02*
X80224405Y-78667319D01*
X81176786Y-77762557D02*
X81224405Y-77714938D01*
X81224405Y-77714938D02*
X81319643Y-77667319D01*
X81319643Y-77667319D02*
X81557738Y-77667319D01*
X81557738Y-77667319D02*
X81652976Y-77714938D01*
X81652976Y-77714938D02*
X81700595Y-77762557D01*
X81700595Y-77762557D02*
X81748214Y-77857795D01*
X81748214Y-77857795D02*
X81748214Y-77953033D01*
X81748214Y-77953033D02*
X81700595Y-78095890D01*
X81700595Y-78095890D02*
X81129167Y-78667319D01*
X81129167Y-78667319D02*
X81748214Y-78667319D01*
X77991071Y-80449795D02*
X77533928Y-80449795D01*
X77762500Y-80449795D02*
X77762500Y-79649795D01*
X77762500Y-79649795D02*
X77686309Y-79764080D01*
X77686309Y-79764080D02*
X77610119Y-79840271D01*
X77610119Y-79840271D02*
X77533928Y-79878366D01*
X103441667Y-59208200D02*
X103584524Y-59255819D01*
X103584524Y-59255819D02*
X103822619Y-59255819D01*
X103822619Y-59255819D02*
X103917857Y-59208200D01*
X103917857Y-59208200D02*
X103965476Y-59160580D01*
X103965476Y-59160580D02*
X104013095Y-59065342D01*
X104013095Y-59065342D02*
X104013095Y-58970104D01*
X104013095Y-58970104D02*
X103965476Y-58874866D01*
X103965476Y-58874866D02*
X103917857Y-58827247D01*
X103917857Y-58827247D02*
X103822619Y-58779628D01*
X103822619Y-58779628D02*
X103632143Y-58732009D01*
X103632143Y-58732009D02*
X103536905Y-58684390D01*
X103536905Y-58684390D02*
X103489286Y-58636771D01*
X103489286Y-58636771D02*
X103441667Y-58541533D01*
X103441667Y-58541533D02*
X103441667Y-58446295D01*
X103441667Y-58446295D02*
X103489286Y-58351057D01*
X103489286Y-58351057D02*
X103536905Y-58303438D01*
X103536905Y-58303438D02*
X103632143Y-58255819D01*
X103632143Y-58255819D02*
X103870238Y-58255819D01*
X103870238Y-58255819D02*
X104013095Y-58303438D01*
X104346429Y-58255819D02*
X104584524Y-59255819D01*
X104584524Y-59255819D02*
X104775000Y-58541533D01*
X104775000Y-58541533D02*
X104965476Y-59255819D01*
X104965476Y-59255819D02*
X105203572Y-58255819D01*
X106013095Y-58589152D02*
X106013095Y-59255819D01*
X105775000Y-58208200D02*
X105536905Y-58922485D01*
X105536905Y-58922485D02*
X106155952Y-58922485D01*
X126254464Y-66848569D02*
X126254464Y-65848569D01*
X126254464Y-65848569D02*
X126492559Y-65848569D01*
X126492559Y-65848569D02*
X126635416Y-65896188D01*
X126635416Y-65896188D02*
X126730654Y-65991426D01*
X126730654Y-65991426D02*
X126778273Y-66086664D01*
X126778273Y-66086664D02*
X126825892Y-66277140D01*
X126825892Y-66277140D02*
X126825892Y-66419997D01*
X126825892Y-66419997D02*
X126778273Y-66610473D01*
X126778273Y-66610473D02*
X126730654Y-66705711D01*
X126730654Y-66705711D02*
X126635416Y-66800950D01*
X126635416Y-66800950D02*
X126492559Y-66848569D01*
X126492559Y-66848569D02*
X126254464Y-66848569D01*
X127206845Y-66800950D02*
X127349702Y-66848569D01*
X127349702Y-66848569D02*
X127587797Y-66848569D01*
X127587797Y-66848569D02*
X127683035Y-66800950D01*
X127683035Y-66800950D02*
X127730654Y-66753330D01*
X127730654Y-66753330D02*
X127778273Y-66658092D01*
X127778273Y-66658092D02*
X127778273Y-66562854D01*
X127778273Y-66562854D02*
X127730654Y-66467616D01*
X127730654Y-66467616D02*
X127683035Y-66419997D01*
X127683035Y-66419997D02*
X127587797Y-66372378D01*
X127587797Y-66372378D02*
X127397321Y-66324759D01*
X127397321Y-66324759D02*
X127302083Y-66277140D01*
X127302083Y-66277140D02*
X127254464Y-66229521D01*
X127254464Y-66229521D02*
X127206845Y-66134283D01*
X127206845Y-66134283D02*
X127206845Y-66039045D01*
X127206845Y-66039045D02*
X127254464Y-65943807D01*
X127254464Y-65943807D02*
X127302083Y-65896188D01*
X127302083Y-65896188D02*
X127397321Y-65848569D01*
X127397321Y-65848569D02*
X127635416Y-65848569D01*
X127635416Y-65848569D02*
X127778273Y-65896188D01*
X128730654Y-66848569D02*
X128159226Y-66848569D01*
X128444940Y-66848569D02*
X128444940Y-65848569D01*
X128444940Y-65848569D02*
X128349702Y-65991426D01*
X128349702Y-65991426D02*
X128254464Y-66086664D01*
X128254464Y-66086664D02*
X128159226Y-66134283D01*
X120316667Y-38569700D02*
X120459524Y-38617319D01*
X120459524Y-38617319D02*
X120697619Y-38617319D01*
X120697619Y-38617319D02*
X120792857Y-38569700D01*
X120792857Y-38569700D02*
X120840476Y-38522080D01*
X120840476Y-38522080D02*
X120888095Y-38426842D01*
X120888095Y-38426842D02*
X120888095Y-38331604D01*
X120888095Y-38331604D02*
X120840476Y-38236366D01*
X120840476Y-38236366D02*
X120792857Y-38188747D01*
X120792857Y-38188747D02*
X120697619Y-38141128D01*
X120697619Y-38141128D02*
X120507143Y-38093509D01*
X120507143Y-38093509D02*
X120411905Y-38045890D01*
X120411905Y-38045890D02*
X120364286Y-37998271D01*
X120364286Y-37998271D02*
X120316667Y-37903033D01*
X120316667Y-37903033D02*
X120316667Y-37807795D01*
X120316667Y-37807795D02*
X120364286Y-37712557D01*
X120364286Y-37712557D02*
X120411905Y-37664938D01*
X120411905Y-37664938D02*
X120507143Y-37617319D01*
X120507143Y-37617319D02*
X120745238Y-37617319D01*
X120745238Y-37617319D02*
X120888095Y-37664938D01*
X121221429Y-37617319D02*
X121459524Y-38617319D01*
X121459524Y-38617319D02*
X121650000Y-37903033D01*
X121650000Y-37903033D02*
X121840476Y-38617319D01*
X121840476Y-38617319D02*
X122078572Y-37617319D01*
X122935714Y-37617319D02*
X122459524Y-37617319D01*
X122459524Y-37617319D02*
X122411905Y-38093509D01*
X122411905Y-38093509D02*
X122459524Y-38045890D01*
X122459524Y-38045890D02*
X122554762Y-37998271D01*
X122554762Y-37998271D02*
X122792857Y-37998271D01*
X122792857Y-37998271D02*
X122888095Y-38045890D01*
X122888095Y-38045890D02*
X122935714Y-38093509D01*
X122935714Y-38093509D02*
X122983333Y-38188747D01*
X122983333Y-38188747D02*
X122983333Y-38426842D01*
X122983333Y-38426842D02*
X122935714Y-38522080D01*
X122935714Y-38522080D02*
X122888095Y-38569700D01*
X122888095Y-38569700D02*
X122792857Y-38617319D01*
X122792857Y-38617319D02*
X122554762Y-38617319D01*
X122554762Y-38617319D02*
X122459524Y-38569700D01*
X122459524Y-38569700D02*
X122411905Y-38522080D01*
X119253095Y-92958569D02*
X119253095Y-93768092D01*
X119253095Y-93768092D02*
X119300714Y-93863330D01*
X119300714Y-93863330D02*
X119348333Y-93910950D01*
X119348333Y-93910950D02*
X119443571Y-93958569D01*
X119443571Y-93958569D02*
X119634047Y-93958569D01*
X119634047Y-93958569D02*
X119729285Y-93910950D01*
X119729285Y-93910950D02*
X119776904Y-93863330D01*
X119776904Y-93863330D02*
X119824523Y-93768092D01*
X119824523Y-93768092D02*
X119824523Y-92958569D01*
X120824523Y-93958569D02*
X120253095Y-93958569D01*
X120538809Y-93958569D02*
X120538809Y-92958569D01*
X120538809Y-92958569D02*
X120443571Y-93101426D01*
X120443571Y-93101426D02*
X120348333Y-93196664D01*
X120348333Y-93196664D02*
X120253095Y-93244283D01*
X87999405Y-78667319D02*
X87999405Y-77667319D01*
X87999405Y-77667319D02*
X88237500Y-77667319D01*
X88237500Y-77667319D02*
X88380357Y-77714938D01*
X88380357Y-77714938D02*
X88475595Y-77810176D01*
X88475595Y-77810176D02*
X88523214Y-77905414D01*
X88523214Y-77905414D02*
X88570833Y-78095890D01*
X88570833Y-78095890D02*
X88570833Y-78238747D01*
X88570833Y-78238747D02*
X88523214Y-78429223D01*
X88523214Y-78429223D02*
X88475595Y-78524461D01*
X88475595Y-78524461D02*
X88380357Y-78619700D01*
X88380357Y-78619700D02*
X88237500Y-78667319D01*
X88237500Y-78667319D02*
X87999405Y-78667319D01*
X89523214Y-78667319D02*
X88951786Y-78667319D01*
X89237500Y-78667319D02*
X89237500Y-77667319D01*
X89237500Y-77667319D02*
X89142262Y-77810176D01*
X89142262Y-77810176D02*
X89047024Y-77905414D01*
X89047024Y-77905414D02*
X88951786Y-77953033D01*
X85766071Y-80449795D02*
X85308928Y-80449795D01*
X85537500Y-80449795D02*
X85537500Y-79649795D01*
X85537500Y-79649795D02*
X85461309Y-79764080D01*
X85461309Y-79764080D02*
X85385119Y-79840271D01*
X85385119Y-79840271D02*
X85308928Y-79878366D01*
X84391667Y-40158200D02*
X84534524Y-40205819D01*
X84534524Y-40205819D02*
X84772619Y-40205819D01*
X84772619Y-40205819D02*
X84867857Y-40158200D01*
X84867857Y-40158200D02*
X84915476Y-40110580D01*
X84915476Y-40110580D02*
X84963095Y-40015342D01*
X84963095Y-40015342D02*
X84963095Y-39920104D01*
X84963095Y-39920104D02*
X84915476Y-39824866D01*
X84915476Y-39824866D02*
X84867857Y-39777247D01*
X84867857Y-39777247D02*
X84772619Y-39729628D01*
X84772619Y-39729628D02*
X84582143Y-39682009D01*
X84582143Y-39682009D02*
X84486905Y-39634390D01*
X84486905Y-39634390D02*
X84439286Y-39586771D01*
X84439286Y-39586771D02*
X84391667Y-39491533D01*
X84391667Y-39491533D02*
X84391667Y-39396295D01*
X84391667Y-39396295D02*
X84439286Y-39301057D01*
X84439286Y-39301057D02*
X84486905Y-39253438D01*
X84486905Y-39253438D02*
X84582143Y-39205819D01*
X84582143Y-39205819D02*
X84820238Y-39205819D01*
X84820238Y-39205819D02*
X84963095Y-39253438D01*
X85296429Y-39205819D02*
X85534524Y-40205819D01*
X85534524Y-40205819D02*
X85725000Y-39491533D01*
X85725000Y-39491533D02*
X85915476Y-40205819D01*
X85915476Y-40205819D02*
X86153572Y-39205819D01*
X87058333Y-40205819D02*
X86486905Y-40205819D01*
X86772619Y-40205819D02*
X86772619Y-39205819D01*
X86772619Y-39205819D02*
X86677381Y-39348676D01*
X86677381Y-39348676D02*
X86582143Y-39443914D01*
X86582143Y-39443914D02*
X86486905Y-39491533D01*
X103441667Y-40158200D02*
X103584524Y-40205819D01*
X103584524Y-40205819D02*
X103822619Y-40205819D01*
X103822619Y-40205819D02*
X103917857Y-40158200D01*
X103917857Y-40158200D02*
X103965476Y-40110580D01*
X103965476Y-40110580D02*
X104013095Y-40015342D01*
X104013095Y-40015342D02*
X104013095Y-39920104D01*
X104013095Y-39920104D02*
X103965476Y-39824866D01*
X103965476Y-39824866D02*
X103917857Y-39777247D01*
X103917857Y-39777247D02*
X103822619Y-39729628D01*
X103822619Y-39729628D02*
X103632143Y-39682009D01*
X103632143Y-39682009D02*
X103536905Y-39634390D01*
X103536905Y-39634390D02*
X103489286Y-39586771D01*
X103489286Y-39586771D02*
X103441667Y-39491533D01*
X103441667Y-39491533D02*
X103441667Y-39396295D01*
X103441667Y-39396295D02*
X103489286Y-39301057D01*
X103489286Y-39301057D02*
X103536905Y-39253438D01*
X103536905Y-39253438D02*
X103632143Y-39205819D01*
X103632143Y-39205819D02*
X103870238Y-39205819D01*
X103870238Y-39205819D02*
X104013095Y-39253438D01*
X104346429Y-39205819D02*
X104584524Y-40205819D01*
X104584524Y-40205819D02*
X104775000Y-39491533D01*
X104775000Y-39491533D02*
X104965476Y-40205819D01*
X104965476Y-40205819D02*
X105203572Y-39205819D01*
X105536905Y-39301057D02*
X105584524Y-39253438D01*
X105584524Y-39253438D02*
X105679762Y-39205819D01*
X105679762Y-39205819D02*
X105917857Y-39205819D01*
X105917857Y-39205819D02*
X106013095Y-39253438D01*
X106013095Y-39253438D02*
X106060714Y-39301057D01*
X106060714Y-39301057D02*
X106108333Y-39396295D01*
X106108333Y-39396295D02*
X106108333Y-39491533D01*
X106108333Y-39491533D02*
X106060714Y-39634390D01*
X106060714Y-39634390D02*
X105489286Y-40205819D01*
X105489286Y-40205819D02*
X106108333Y-40205819D01*
D12*
%TO.C,SW3*%
X78740000Y-59690000D02*
X92710000Y-59690000D01*
X78740000Y-73660000D02*
X78740000Y-59690000D01*
X92710000Y-59690000D02*
X92710000Y-73660000D01*
X92710000Y-73660000D02*
X78740000Y-73660000D01*
%TO.C,D2*%
X78162500Y-78962500D02*
X78162500Y-82962500D01*
X78162500Y-78962500D02*
X83762500Y-78962500D01*
X78162500Y-82962500D02*
X83162500Y-82962500D01*
X83762500Y-82362500D02*
X83162500Y-82962500D01*
X83762500Y-82362500D02*
X83762500Y-78962500D01*
%TO.C,SW4*%
X97790000Y-59690000D02*
X111760000Y-59690000D01*
X97790000Y-73660000D02*
X97790000Y-59690000D01*
X111760000Y-59690000D02*
X111760000Y-73660000D01*
X111760000Y-73660000D02*
X97790000Y-73660000D01*
%TO.C,DS1*%
X116668750Y-63293750D02*
X116668750Y-65443750D01*
X116668750Y-65443750D02*
X138968750Y-65443750D01*
X138968750Y-65443750D02*
X138968750Y-63293750D01*
D10*
X120168750Y-60543750D02*
G75*
G02*
X119468750Y-60543750I-350000J0D01*
G01*
X119468750Y-60543750D02*
G75*
G02*
X120168750Y-60543750I350000J0D01*
G01*
X136168750Y-60543750D02*
G75*
G02*
X135468750Y-60543750I-350000J0D01*
G01*
X135468750Y-60543750D02*
G75*
G02*
X136168750Y-60543750I350000J0D01*
G01*
D12*
%TO.C,SW5*%
X118550000Y-41262500D02*
X119150000Y-41262500D01*
X118850000Y-41562500D02*
X118550000Y-41262500D01*
X119150000Y-41262500D02*
X118850000Y-41562500D01*
X120250000Y-39462500D02*
X120250000Y-51262500D01*
X124350000Y-39462500D02*
X120250000Y-39462500D01*
X124350000Y-51262500D02*
X120250000Y-51262500D01*
X125850000Y-45362500D02*
X126850000Y-45362500D01*
X126350000Y-44862500D02*
X126350000Y-45862500D01*
X128350000Y-39462500D02*
X132450000Y-39462500D01*
X132450000Y-39462500D02*
X132450000Y-41862500D01*
X132450000Y-44062500D02*
X132450000Y-46662500D01*
X132450000Y-48862500D02*
X132450000Y-51262500D01*
X132450000Y-51262500D02*
X128350000Y-51262500D01*
X129350000Y-45362500D02*
G75*
G02*
X123350000Y-45362500I-3000000J0D01*
G01*
X123350000Y-45362500D02*
G75*
G02*
X129350000Y-45362500I3000000J0D01*
G01*
%TO.C,U1*%
X117365000Y-74552500D02*
X117365000Y-92452500D01*
X117365000Y-92452500D02*
X119015000Y-92452500D01*
X121015000Y-92452500D02*
X122665000Y-92452500D01*
X122665000Y-74552500D02*
X117365000Y-74552500D01*
X122665000Y-92452500D02*
X122665000Y-74552500D01*
X119015000Y-92452500D02*
G75*
G02*
X121015000Y-92452500I1000000J0D01*
G01*
%TO.C,D1*%
X85937500Y-78962500D02*
X85937500Y-82962500D01*
X85937500Y-78962500D02*
X91537500Y-78962500D01*
X85937500Y-82962500D02*
X90937500Y-82962500D01*
X91537500Y-82362500D02*
X90937500Y-82962500D01*
X91537500Y-82362500D02*
X91537500Y-78962500D01*
%TO.C,SW1*%
X78740000Y-40640000D02*
X92710000Y-40640000D01*
X78740000Y-54610000D02*
X78740000Y-40640000D01*
X92710000Y-40640000D02*
X92710000Y-54610000D01*
X92710000Y-54610000D02*
X78740000Y-54610000D01*
%TO.C,SW2*%
X97790000Y-40640000D02*
X111760000Y-40640000D01*
X97790000Y-54610000D02*
X97790000Y-40640000D01*
X111760000Y-40640000D02*
X111760000Y-54610000D01*
X111760000Y-54610000D02*
X97790000Y-54610000D01*
%TD*%
M02*
